<?xml version="1.0" encoding="UTF-8" standalone="no"?><!DOCTYPE svg PUBLIC "-//W3C//DTD SVG 1.1//EN" "http://www.w3.org/Graphics/SVG/1.1/DTD/svg11.dtd"><svg width="100%" height="100%" viewBox="0 0 534 305" version="1.1" xmlns="http://www.w3.org/2000/svg" xmlns:xlink="http://www.w3.org/1999/xlink" xml:space="preserve" xmlns:serif="http://www.serif.com/" style="fill-rule:evenodd;clip-rule:evenodd;stroke-linecap:round;stroke-linejoin:round;stroke-miterlimit:1.41421;"><rect id="Full-Logo---Heavy" serif:id="Full Logo - Heavy" x="0" y="0" width="533.3" height="304.661" style="fill:none;"/><g><g><path d="M489.694,217.96c0,0 -10.527,-5.358 -26.793,-4.849c-16.292,0.509 -24.232,9.06 -23.979,18.508c0.261,9.705 8.796,18.019 23.979,15.671c15.183,-2.347 22.95,-12.276 26.793,-16.038l0,-13.292Z" style="fill:none;stroke:#000;stroke-width:25.61px;"/><path d="M498.935,245.946c-5.103,-0 -9.241,-4.159 -9.241,-9.288c0,-9.766 0.758,-28.613 0,-37.388c-1.445,-16.748 -16.365,-20.774 -30.944,-18.617c-4.047,0.598 -8.069,1.579 -11.774,2.812" style="fill:none;stroke:#000;stroke-width:25.61px;"/></g><g><path d="M221.566,217.96c0,0 -10.527,-5.358 -26.793,-4.849c-16.292,0.509 -24.232,9.06 -23.979,18.508c0.261,9.705 8.796,18.019 23.979,15.671c15.183,-2.347 22.95,-12.276 26.793,-16.038l0,-13.292Z" style="fill:none;stroke:#000;stroke-width:25.61px;"/><path d="M230.807,245.946c-5.103,-0 -9.241,-4.159 -9.241,-9.288c0,-9.766 0.758,-28.613 0,-37.388c-1.46,-16.919 -16.639,-20.203 -31.359,-17.452" style="fill:none;stroke:#000;stroke-width:25.61px;"/></g><g><path d="M257.476,245.946l15.941,-0l-15.941,-0Z" style="fill:none;stroke:#000;stroke-width:25.61px;"/><path d="M302.463,245.946l18.228,-0l-18.228,-0Z" style="fill:none;stroke:#000;stroke-width:25.61px;"/><path d="M311.309,245.946c0,-0 0.079,-31.989 0.132,-41.727c0.07,-12.813 -6.975,-20.542 -17.076,-21.751c-14.902,-1.782 -26.88,13.543 -27.162,21.751" style="fill:none;stroke:#000;stroke-width:25.61px;"/><path d="M258.353,185.859c2.355,-0.027 4.601,0.898 6.252,2.53c1.678,1.66 2.598,3.918 2.598,6.257l0,51.3" style="fill:none;stroke:#000;stroke-width:25.61px;"/></g><g><path d="M347.11,245.946l16.804,-0l-16.804,-0Z" style="fill:none;stroke:#000;stroke-width:25.61px;"/><path d="M394.532,245.946l19.215,-0l-19.215,-0Z" style="fill:none;stroke:#000;stroke-width:25.61px;"/><path d="M403.857,245.946c0,-0 0.084,-31.989 0.14,-41.727c0.073,-12.813 -7.353,-20.542 -18.001,-21.751c-15.709,-1.782 -28.336,13.543 -28.633,21.751" style="fill:none;stroke:#000;stroke-width:25.61px;"/><path d="M348.034,185.859c2.482,-0.027 4.85,0.898 6.59,2.53c1.769,1.66 2.739,3.918 2.739,6.257l0,51.3" style="fill:none;stroke:#000;stroke-width:25.61px;"/></g><path d="M397.804,139.42c-16.479,0 -24.03,-15.518 -24.03,-30.699c-0,-18.124 9.301,-30.67 24.03,-30.67c14.053,0 24.055,13.735 24.055,30.67c-0,17.474 -7.575,30.699 -24.055,30.699Z" style="fill:none;stroke:#000;stroke-width:25.61px;"/><g><path d="M310.329,136.915l32.881,0l-32.881,0Z" style="fill:none;stroke:#000;stroke-width:25.61px;"/><path d="M312.155,86.536l33.846,2.75l-33.846,-2.75Z" style="fill:none;stroke:#000;stroke-width:25.61px;"/><path d="M358.934,59.337c-0,0 -5.921,-1.968 -12.126,-2.121c-7.351,-0.182 -19.594,3.419 -19.594,19.511c-0.081,12.35 -0.271,60.188 -0.271,60.188" style="fill:none;stroke:#000;stroke-width:25.61px;"/></g><g><path d="M246.965,137.016l32.881,-0l-32.881,-0Z" style="fill:none;stroke:#000;stroke-width:25.61px;"/><path d="M248.79,86.636l33.847,2.751l-33.847,-2.751Z" style="fill:none;stroke:#000;stroke-width:25.61px;"/><path d="M295.569,59.438c0,0 -5.921,-1.968 -12.125,-2.122c-7.351,-0.181 -19.594,3.42 -19.594,19.511c-0.082,12.351 -0.271,60.189 -0.271,60.189" style="fill:none;stroke:#000;stroke-width:25.61px;"/></g><path d="M170.205,112.985c23.04,-7.005 48.403,-3.49 52.976,-5.667c1.604,-11.453 -6.873,-30.793 -26.245,-30.793c-19.373,-0 -28.03,17.078 -27.06,33.339c0.943,15.805 12.38,26.926 24.789,29.041c7.23,1.233 14.05,0.212 17.162,-0.456" style="fill:none;stroke:#000;stroke-width:25px;"/><g><path d="M85.316,139.933l-0,-80.164" style="fill:none;stroke:#000;stroke-width:25px;"/><path d="M170.006,161.766c-15.619,-1.675 -20.756,10.75 -22.544,18.678c-4.374,19.391 -9.927,48.236 -15.1,64.799c-0.974,3.156 -3.767,5.305 -6.893,5.277c-3.126,0 -5.765,-2.201 -6.893,-5.304c-9.659,-26.556 -22.487,-67.072 -22.487,-67.072" style="fill:none;stroke:#000;stroke-width:24.69px;"/><path d="M115.233,173.144c-1.729,0 -3.806,0 -6.206,0c-8.281,0 -15.623,5.289 -18.194,13.107c-5.478,16.654 -11.101,44.949 -15.794,59.237c-1.041,3.155 -3.999,5.304 -7.314,5.332c-3.342,-0 -6.327,-2.095 -7.396,-5.223c-2.012,-5.89 -11.247,-35.523 -20.399,-62.289c-4.337,-12.685 -2.677,-24.166 3.645,-32.483c5.547,-7.298 12.951,-11.131 23.341,-11.831c13.94,-0.939 25.812,3.223 40.987,2.238c25.155,-1.632 33.081,-16.807 32.809,-41.479c-0.282,-25.509 -14.884,-42.557 -35.338,-42.396c-24.117,0.189 -46.169,11.22 -46.169,11.22" style="fill:none;stroke:#000;stroke-width:25px;"/></g></g><g id="Icons"></g></svg>