<?xml version="1.0" encoding="UTF-8" standalone="no"?><!DOCTYPE svg PUBLIC "-//W3C//DTD SVG 1.1//EN" "http://www.w3.org/Graphics/SVG/1.1/DTD/svg11.dtd"><svg width="100%" height="100%" viewBox="0 0 534 305" version="1.1" xmlns="http://www.w3.org/2000/svg" xmlns:xlink="http://www.w3.org/1999/xlink" xml:space="preserve" xmlns:serif="http://www.serif.com/" style="fill-rule:evenodd;clip-rule:evenodd;stroke-linecap:round;stroke-linejoin:round;stroke-miterlimit:1.41421;"><rect id="Full-Logo---Regular" serif:id="Full Logo - Regular" x="0" y="0" width="533.3" height="304.661" style="fill:none;"/><g><g><path d="M481.492,217.41c0,0 -11.54,-3.619 -29.37,-3.085c-17.86,0.534 -26.641,10.265 -26.285,20.411c0.356,10.176 9.642,18.898 26.285,16.436c16.643,-2.463 25.158,-12.876 29.37,-16.822l0,-16.94Z" style="fill:none;stroke:#000;stroke-width:5px;"/><path d="M491.622,249.688c-5.595,0 -10.13,-4.535 -10.13,-10.129c0,-10.651 0,-27.169 0,-36.774c0,-15.042 -25.335,-21.687 -47.793,-11.422" style="fill:none;stroke:#000;stroke-width:5px;"/></g><g><path d="M345.419,249.688l19.962,0l-19.962,0Z" style="fill:none;stroke:#000;stroke-width:5px;"/><path d="M394.966,249.688l18.624,0l-18.624,0Z" style="fill:none;stroke:#000;stroke-width:5px;"/><path d="M345.155,188.159c2.581,-0.03 5.043,0.979 6.853,2.759c1.839,1.809 2.848,4.272 2.848,6.823l-0,51.947" style="fill:none;stroke:#000;stroke-width:5px;"/><path d="M404.429,249.688c0,0 0.089,-36.846 0.149,-47.467c0.059,-9.375 -11.333,-16.05 -22.755,-16.05c-11.451,0 -22.043,10.799 -26.967,17.474" style="fill:none;stroke:#000;stroke-width:5px;"/></g><g><path d="M263.165,249.688l19.961,0l-19.961,0Z" style="fill:none;stroke:#000;stroke-width:5px;"/><path d="M312.711,249.688l18.625,0l-18.625,0Z" style="fill:none;stroke:#000;stroke-width:5px;"/><path d="M322.175,249.688c-0,0 0.089,-36.846 0.148,-47.467c0.06,-9.375 -11.333,-16.05 -22.754,-16.05c-11.452,0 -22.043,10.799 -26.968,17.474" style="fill:none;stroke:#000;stroke-width:5px;"/><path d="M262.9,188.159c2.581,-0.03 5.043,0.979 6.853,2.759c1.839,1.809 2.848,4.272 2.848,6.823l0,51.947" style="fill:none;stroke:#000;stroke-width:5px;"/></g><g><path d="M237.547,217.41c-0,0 -11.511,-3.619 -29.371,-3.085c-17.829,0.534 -26.641,10.265 -26.255,20.411c0.356,10.176 9.642,18.898 26.255,16.436c16.644,-2.463 25.158,-12.876 29.371,-16.822l-0,-16.94Z" style="fill:none;stroke:#000;stroke-width:5px;"/><path d="M247.677,249.688c-2.687,0 -5.264,-1.067 -7.163,-2.967c-1.9,-1.899 -2.967,-4.476 -2.967,-7.162c-0,-12.258 -0,-24.516 -0,-36.774c-0,-12.765 -18.248,-19.483 -37.48,-14.95" style="fill:none;stroke:#000;stroke-width:5px;"/></g><path d="M369.564,142.738c-16.643,0 -30.142,-13.498 -30.142,-30.171c0,-16.643 13.499,-30.142 30.142,-30.142c16.673,0 30.172,13.499 30.172,30.142c-0,16.673 -13.499,30.171 -30.172,30.171Z" style="fill:none;stroke:#000;stroke-width:5px;"/><g><path d="M292.934,139.89l34.043,0l-34.043,0Z" style="fill:none;stroke:#000;stroke-width:5px;"/><path d="M294.935,84.947l35.102,-0l-35.102,-0Z" style="fill:none;stroke:#000;stroke-width:5px;"/><path d="M308.146,139.89c0,0 0.208,-54.172 0.297,-67.641c0.119,-13.439 14.685,-15.634 21.479,-15.278c6.794,0.356 16.292,2.314 16.292,2.314" style="fill:none;stroke:#000;stroke-width:5px;"/></g><g><path d="M239.416,139.89l35.043,0l-35.043,0Z" style="fill:none;stroke:#000;stroke-width:5px;"/><path d="M241.417,84.947l36.102,-0l-36.102,-0Z" style="fill:none;stroke:#000;stroke-width:5px;"/><path d="M292.696,59.285c-0,-0 -6.498,-1.958 -13.292,-2.314c-6.794,-0.356 -21.39,1.839 -21.479,15.278c-0.089,13.469 -0.297,67.641 -0.297,67.641" style="fill:none;stroke:#000;stroke-width:5px;"/></g><path d="M169.207,110.935l60.669,0c-0.86,-15.901 -14.477,-28.51 -30.587,-28.51c-16.643,0 -30.141,13.499 -30.141,30.142c-0,16.673 13.379,27.679 28.628,29.37c8.384,0.917 14.934,-0.202 20.427,-2.369" style="fill:none;stroke:#000;stroke-width:5px;"/><g><path d="M91.316,140.994l-0,-83.842" style="fill:none;stroke:#000;stroke-width:5px;"/><path d="M205.79,163.832c0,-0 -4.851,0.026 -13.436,0.05c-8.913,0.026 -16.811,5.745 -19.617,14.204c-6.694,20.183 -18.83,56.772 -24.819,74.836c-1.128,3.441 -4.362,5.785 -7.981,5.755c-3.619,0 -6.853,-2.343 -7.98,-5.785c-9.909,-30.408 -24.031,-73.648 -24.031,-73.648" style="fill:none;stroke:#000;stroke-width:5px;"/><path d="M134.692,174.292c0,-0 -4.768,-0 -13.319,-0c-8.969,-0 -16.921,5.768 -19.706,14.293c-5.933,18.164 -16.011,49.022 -21.094,64.604c-1.127,3.441 -4.331,5.785 -7.921,5.815c-3.619,-0 -6.853,-2.285 -8.01,-5.696c-2.18,-6.423 -13.156,-38.742 -23.069,-67.932c-3.67,-10.809 -1.73,-22.735 5.178,-31.823c6.908,-9.088 15.142,-12.742 26.531,-13.505c15.28,-1.024 25.531,3.649 42.157,2.44c24.488,-1.78 38.736,-18.683 38.736,-43.236c0,-24.553 -14.184,-45.237 -38.736,-45.237c-24.553,-0 -48.237,11.446 -48.237,11.446" style="fill:none;stroke:#000;stroke-width:5px;"/></g></g><g id="Icons"></g></svg>