<?xml version="1.0" encoding="UTF-8" standalone="no"?>
<!DOCTYPE svg PUBLIC "-//W3C//DTD SVG 1.1//EN" "http://www.w3.org/Graphics/SVG/1.1/DTD/svg11.dtd">
<svg width="100%" height="100%" viewBox="0 0 535 306" version="1.1" xmlns="http://www.w3.org/2000/svg" xmlns:xlink="http://www.w3.org/1999/xlink" xml:space="preserve" xmlns:serif="http://www.serif.com/" style="fill-rule:evenodd;clip-rule:evenodd;stroke-linecap:round;stroke-linejoin:round;stroke-miterlimit:1.41421;">
    <rect id="logo-heavy-normal" x="0.864" y="0.915" width="533.3" height="304.661" style="fill:none;"/>
    <path id="_23" serif:id="23" d="M489.503,218.851c0,-0 -10.923,-5.275 -26.793,-4.849c-15.871,0.425 -24.232,9.059 -23.979,18.508c0.26,9.704 8.796,18.019 23.979,15.671c15.183,-2.348 22.95,-12.277 26.793,-16.039" style="fill:none;stroke:#000;stroke-width:26px;"/>
    <path id="_22" serif:id="22" d="M498.744,246.861c-5.104,-0 -9.241,-4.159 -9.241,-9.288c0,-9.766 0,-27.622 0,-37.388c0,-16.811 -18.422,-23.276 -42.879,-15.972" style="fill:none;stroke:#000;stroke-width:26px;"/>
    <path id="_21" serif:id="21" d="M394.694,246.861l19.216,-0l-19.216,-0Z" style="fill:none;stroke:#000;stroke-width:26px;"/>
    <path id="_20" serif:id="20" d="M347.272,246.861l16.804,-0l-16.804,-0Z" style="fill:none;stroke:#000;stroke-width:26px;"/>
    <path id="_19" serif:id="19" d="M404.02,246.861c-0,-0 0.083,-31.989 0.139,-41.727c0.073,-12.813 -7.352,-20.542 -18.001,-21.751c-15.709,-1.782 -28.315,13.543 -28.612,21.751" style="fill:none;stroke:#000;stroke-width:26px;"/>
    <path id="_18" serif:id="18" d="M348.676,186.774c5.514,0 8.834,4.476 8.85,8.787c0.057,15.913 -0,51.3 -0,51.3" style="fill:none;stroke:#000;stroke-width:26px;"/>
    <path id="_17" serif:id="17" d="M302.625,246.861l18.228,-0l-18.228,-0Z" style="fill:none;stroke:#000;stroke-width:26px;"/>
    <path id="_16" serif:id="16" d="M257.639,246.861l15.941,-0l-15.941,-0Z" style="fill:none;stroke:#000;stroke-width:26px;"/>
    <path id="_15" serif:id="15" d="M311.472,246.861c-0,-0 0.079,-31.989 0.132,-41.727c0.069,-12.813 -6.975,-20.542 -17.076,-21.751c-14.903,-1.782 -26.861,13.543 -27.142,21.751" style="fill:none;stroke:#000;stroke-width:26px;"/>
    <path id="_14" serif:id="14" d="M258.516,186.774c5.514,0 8.834,4.476 8.85,8.787c0.057,15.913 -0,51.3 -0,51.3" style="fill:none;stroke:#000;stroke-width:26px;"/>
    <path id="_13" serif:id="13" d="M222.131,218.875c-0,-0 -10.923,-5.275 -26.794,-4.849c-15.87,0.426 -24.232,9.06 -23.978,18.508c0.26,9.705 8.795,18.019 23.978,15.671c15.183,-2.347 22.951,-12.276 26.794,-16.038" style="fill:none;stroke:#000;stroke-width:26px;"/>
    <path id="_12" serif:id="12" d="M231.371,246.861c-5.103,-0 -9.24,-4.159 -9.24,-9.288c-0,-9.766 -0,-28.613 -0,-37.388c-0,-16.831 -18.399,-20.854 -31.36,-17.452" style="fill:none;stroke:#000;stroke-width:26px;"/>
    <path id="_11" serif:id="11" d="M398.669,140.335c-16.48,-0 -24.031,-15.518 -24.031,-30.699c0,-18.124 9.302,-30.67 24.031,-30.67c14.053,0 24.054,13.735 24.054,30.67c-0,17.474 -7.574,30.699 -24.054,30.699Z" style="fill:none;stroke:#000;stroke-width:26px;"/>
    <path id="_10" serif:id="10" d="M311.194,137.83l32.88,-0l-32.88,-0Z" style="fill:none;stroke:#000;stroke-width:26px;"/>
    <path id="_9" serif:id="9" d="M313.019,87.45l33.847,2.751l-33.847,-2.751Z" style="fill:none;stroke:#000;stroke-width:26px;"/>
    <path id="_8" serif:id="8" d="M359.798,60.252c-0,0 -5.921,-1.968 -12.125,-2.121c-7.352,-0.182 -19.48,2.121 -19.595,19.511c-0.081,12.35 -0.27,60.188 -0.27,60.188" style="fill:none;stroke:#000;stroke-width:26px;"/>
    <path id="_7" serif:id="7" d="M247.829,137.931l32.881,-0l-32.881,-0Z" style="fill:none;stroke:#000;stroke-width:26px;"/>
    <path id="_6" serif:id="6" d="M249.654,87.551l33.847,2.751l-33.847,-2.751Z" style="fill:none;stroke:#000;stroke-width:26px;"/>
    <path id="_5" serif:id="5" d="M296.434,60.353c-0,0 -5.922,-1.968 -12.126,-2.122c-7.351,-0.181 -19.48,2.122 -19.594,19.511c-0.081,12.351 -0.271,60.189 -0.271,60.189" style="fill:none;stroke:#000;stroke-width:26px;"/>
    <path id="_4" serif:id="4" d="M171.353,115.496c20.28,-9.513 48.119,-5.086 52.693,-7.263c1.603,-11.453 -6.873,-31.073 -26.246,-31.073c-19.373,0 -28.03,17.358 -27.06,33.619c0.944,15.805 12.38,26.926 24.79,29.041c7.229,1.233 14.049,0.212 17.161,-0.456" style="fill:none;stroke:#000;stroke-width:26px;"/>
    <path id="_1" serif:id="1" d="M86.18,140.848l-0,-80.164" style="fill:none;stroke:#000;stroke-width:26px;"/>
    <path id="_3" serif:id="3" d="M170.871,162.681c-0,-0 -0.635,-0.063 -0.946,-0.085c-14.883,-1.084 -19.847,10.997 -21.599,18.763c-4.374,19.391 -9.999,48.267 -15.1,64.799c-0.974,3.156 -3.767,5.305 -6.893,5.277c-3.126,0 -5.764,-2.201 -6.893,-5.304c-9.659,-26.556 -22.487,-67.072 -22.487,-67.072" style="fill:none;stroke:#000;stroke-width:26px;"/>
    <path id="_2" serif:id="2" d="M116.097,174.059c0,0 -3.806,0 -6.206,0c-8.281,0 -15.923,5.197 -18.194,13.107c-4.778,16.645 -12.67,44.138 -16.918,58.938c-0.917,3.194 -3.999,5.304 -7.314,5.332c-3.341,-0 -6.414,-2.067 -7.395,-5.223c-2.225,-7.153 -14.424,-46.389 -19.275,-61.99c-3.981,-12.801 -2.678,-24.166 3.644,-32.483c5.548,-7.298 12.951,-11.131 23.342,-11.831c13.939,-0.939 25.811,3.223 40.986,2.238c25.155,-1.632 33.081,-16.807 32.809,-41.479c-0.282,-25.509 -14.884,-42.557 -35.338,-42.396c-24.117,0.189 -46.168,11.22 -46.168,11.22" style="fill:none;stroke:#000;stroke-width:26px;"/>
</svg>
