<?xml version="1.0" encoding="UTF-8" standalone="no"?>
<!DOCTYPE svg PUBLIC "-//W3C//DTD SVG 1.1//EN" "http://www.w3.org/Graphics/SVG/1.1/DTD/svg11.dtd">
<svg width="100%" height="100%" viewBox="0 0 534 306" version="1.1" xmlns="http://www.w3.org/2000/svg" xmlns:xlink="http://www.w3.org/1999/xlink" xml:space="preserve" xmlns:serif="http://www.serif.com/" style="fill-rule:evenodd;clip-rule:evenodd;stroke-linecap:round;stroke-linejoin:round;stroke-miterlimit:1.41421;">
    <rect id="logo-heavy-jiggly" x="0.168" y="0.523" width="533.3" height="304.661" style="fill:none;"/>
    <g id="Layer6">
        <path id="_23" serif:id="23" d="M487.196,191.485c-0,0 -12.034,-1.521 -26.943,3.937c-14.908,5.459 -20.085,16.306 -16.835,25.182c3.337,9.116 14.076,14.279 27.721,7.218c13.644,-7.061 17.845,-18.947 20.29,-23.737" style="fill:none;stroke:#000;stroke-width:26px;"/>
        <path id="_22" serif:id="22" d="M504.876,215.094c-4.838,1.625 -10.084,-0.999 -11.718,-5.862c-3.11,-9.257 -8.797,-26.183 -11.907,-35.44c-5.354,-15.936 -24.876,-16.197 -45.734,-1.484" style="fill:none;stroke:#000;stroke-width:26px;"/>
        <path id="_21" serif:id="21" d="M396.148,240.114l19.191,-0.966l-19.191,0.966Z" style="fill:none;stroke:#000;stroke-width:26px;"/>
        <path id="_20" serif:id="20" d="M348.786,242.499l16.783,-0.845l-16.783,0.845Z" style="fill:none;stroke:#000;stroke-width:26px;"/>
        <path id="_19" serif:id="19" d="M405.462,239.645c0,-0 -1.525,-31.952 -1.96,-41.681c-0.571,-12.801 -8.376,-20.146 -19.071,-20.818c-15.779,-0.99 -27.599,14.95 -27.483,23.162" style="fill:none;stroke:#000;stroke-width:26px;"/>
        <path id="_18" serif:id="18" d="M347.166,182.418c5.508,-0.277 9.048,4.026 9.281,8.33c0.857,15.891 2.58,51.235 2.58,51.235" style="fill:none;stroke:#000;stroke-width:26px;"/>
        <path id="_17" serif:id="17" d="M303.2,224.17l18.135,-1.848l-18.135,1.848Z" style="fill:none;stroke:#000;stroke-width:26px;"/>
        <path id="_16" serif:id="16" d="M258.446,228.731l15.858,-1.617l-15.858,1.617Z" style="fill:none;stroke:#000;stroke-width:26px;"/>
        <path id="_15" serif:id="15" d="M312.001,223.273c0,-0 -3.164,-31.832 -4.099,-41.525c-1.23,-12.755 -9.021,-19.729 -19.193,-19.908c-15.006,-0.262 -25.349,16.196 -24.797,24.39" style="fill:none;stroke:#000;stroke-width:26px;"/>
        <path id="_14" serif:id="14" d="M253.226,168.865c5.486,-0.559 9.243,3.557 9.695,7.844c1.671,15.826 5.201,51.035 5.201,51.035" style="fill:none;stroke:#000;stroke-width:26px;"/>
        <path id="_13" serif:id="13" d="M220.928,212.194c0,-0 -10.157,-6.63 -25.952,-8.24c-15.794,-1.61 -25.193,5.882 -26.151,15.285c-0.985,9.658 6.416,18.997 21.774,18.613c15.359,-0.385 24.334,-9.237 28.627,-12.476" style="fill:none;stroke:#000;stroke-width:26px;"/>
        <path id="_12" serif:id="12" d="M226.509,241.132c-5.062,-0.653 -8.632,-5.307 -7.975,-10.395c1.25,-9.685 3.664,-28.376 4.787,-37.079c2.156,-16.693 -15.576,-23.038 -28.866,-21.325" style="fill:none;stroke:#000;stroke-width:26px;"/>
        <path id="_11" serif:id="11" d="M415.898,144.876c-16.015,3.889 -27.014,-9.41 -30.596,-24.162c-4.277,-17.612 1.801,-31.998 16.114,-35.474c13.656,-3.316 26.616,7.671 30.612,24.127c4.124,16.981 -0.116,31.62 -16.13,35.509Z" style="fill:none;stroke:#000;stroke-width:26px;"/>
        <path id="_10" serif:id="10" d="M329.138,153.968l28.635,-16.161l-28.635,16.161Z" style="fill:none;stroke:#000;stroke-width:26px;"/>
        <path id="_9" serif:id="9" d="M305.965,109.197l30.828,-14.241l-30.828,14.241Z" style="fill:none;stroke:#000;stroke-width:26px;"/>
        <path id="_8" serif:id="8" d="M333.335,62.518c-0,0 -6.124,1.196 -11.603,4.112c-6.491,3.456 -15.921,11.423 -7.474,26.623c6,10.795 29.349,52.549 29.349,52.549" style="fill:none;stroke:#000;stroke-width:26px;"/>
        <path id="_7" serif:id="7" d="M243.664,133.941l32.788,-2.469l-32.788,2.469Z" style="fill:none;stroke:#000;stroke-width:26px;"/>
        <path id="_6" serif:id="6" d="M241.701,83.567l33.958,0.201l-33.958,-0.201Z" style="fill:none;stroke:#000;stroke-width:26px;"/>
        <path id="_5" serif:id="5" d="M286.306,52.933c0,0 -6.052,-1.518 -12.25,-1.205c-7.344,0.371 -19.266,3.578 -18.074,20.927c0.846,12.321 4.249,60.039 4.249,60.039" style="fill:none;stroke:#000;stroke-width:26px;"/>
        <path id="_4" serif:id="4" d="M160.136,111.547c20.999,-7.798 48.375,-1.078 53.114,-2.868c2.547,-11.281 -4.273,-31.536 -23.579,-33.142c-19.306,-1.606 -29.373,14.974 -29.754,31.259c-0.371,15.829 10.104,27.86 22.296,30.997c7.103,1.828 13.984,1.376 17.14,0.968" style="fill:none;stroke:#000;stroke-width:26px;"/>
        <path id="_3" serif:id="3" d="M164.207,160.705c-0,-0 -0.638,-0.018 -0.95,-0.019c-14.922,-0.035 -19.025,12.365 -20.227,20.235c-3,19.65 -6.582,48.85 -10.51,65.7c-0.749,3.216 -3.384,5.556 -6.505,5.748c-3.118,0.22 -5.904,-1.791 -7.248,-4.807c-11.501,-25.811 -27.144,-65.326 -27.144,-65.326" style="fill:none;stroke:#000;stroke-width:26px;"/>
        <path id="_2" serif:id="2" d="M110.368,175.904c0,-0 -3.796,0.267 -6.19,0.436c-8.261,0.582 -15.52,6.302 -17.229,14.352c-3.596,16.94 -9.537,44.92 -12.735,59.981c-0.69,3.251 -3.616,5.573 -6.921,5.833c-3.333,0.235 -6.543,-1.611 -7.744,-4.69c-2.721,-6.979 -17.648,-45.261 -23.583,-60.483c-4.87,-12.489 -4.369,-23.918 1.353,-32.659c5.021,-7.67 12.137,-12.013 22.452,-13.441c13.84,-1.916 25.974,1.401 41.043,-0.648c24.978,-3.395 31.818,-19.09 29.813,-43.681c-2.073,-25.427 -17.837,-41.406 -38.229,-39.809c-24.044,1.884 -45.266,14.437 -45.266,14.437" style="fill:none;stroke:#000;stroke-width:26px;"/>
        <path id="_1" serif:id="1" d="M78.191,144.877l-5.633,-79.966" style="fill:none;stroke:#000;stroke-width:26px;"/>
    </g>
</svg>
