<?xml version="1.0" encoding="UTF-8" standalone="no"?>
<!DOCTYPE svg PUBLIC "-//W3C//DTD SVG 1.1//EN" "http://www.w3.org/Graphics/SVG/1.1/DTD/svg11.dtd">
<svg width="100%" height="100%" viewBox="0 0 534 306" version="1.1" xmlns="http://www.w3.org/2000/svg" xmlns:xlink="http://www.w3.org/1999/xlink" xml:space="preserve" xmlns:serif="http://www.serif.com/" style="fill-rule:evenodd;clip-rule:evenodd;stroke-linecap:round;stroke-linejoin:round;stroke-miterlimit:1.41421;">
    <rect id="logo-thin-normal" x="0.485" y="0.915" width="533.3" height="304.661" style="fill:none;"/>
    <path id="_23" serif:id="23" d="M481.977,218.325c0,0 -11.752,-3.613 -29.37,-3.085c-17.83,0.534 -26.641,10.265 -26.256,20.411c0.356,10.176 9.642,18.898 26.256,16.436c16.824,-2.494 25.158,-12.876 29.37,-16.822" style="fill:none;stroke:#000;stroke-width:5px;"/>
    <path id="_22" serif:id="22" d="M492.107,250.603c-5.595,0 -10.13,-4.535 -10.13,-10.129c0,-10.651 0,-27.169 0,-36.774c0,-15.042 -25.335,-21.687 -47.793,-11.422" style="fill:none;stroke:#000;stroke-width:5px;"/>
    <path id="_21" serif:id="21" d="M395.451,250.603l18.624,0l-18.624,0Z" style="fill:none;stroke:#000;stroke-width:5px;"/>
    <path id="_20" serif:id="20" d="M345.904,250.603l19.962,0l-19.962,0Z" style="fill:none;stroke:#000;stroke-width:5px;"/>
    <path id="_19" serif:id="19" d="M404.914,250.603c0,0 0.089,-36.846 0.149,-47.467c0.053,-9.438 -11.333,-16.05 -22.755,-16.05c-11.451,0 -22.043,10.799 -26.967,17.474" style="fill:none;stroke:#000;stroke-width:5px;"/>
    <path id="_18" serif:id="18" d="M345.64,189.073c6.593,0 9.701,5.536 9.701,9.583l-0,51.947" style="fill:none;stroke:#000;stroke-width:5px;"/>
    <path id="_17" serif:id="17" d="M313.196,250.603l18.625,0l-18.625,0Z" style="fill:none;stroke:#000;stroke-width:5px;"/>
    <path id="_16" serif:id="16" d="M263.65,250.603l19.961,0l-19.961,0Z" style="fill:none;stroke:#000;stroke-width:5px;"/>
    <path id="_15" serif:id="15" d="M322.66,250.603c-0,0 0.089,-36.846 0.148,-47.467c0.053,-9.401 -11.333,-16.05 -22.754,-16.05c-11.452,0 -22.043,10.799 -26.968,17.474" style="fill:none;stroke:#000;stroke-width:5px;"/>
    <path id="_14" serif:id="14" d="M263.385,189.073c6.594,0 9.701,5.536 9.701,9.583l0,51.947" style="fill:none;stroke:#000;stroke-width:5px;"/>
    <path id="_13" serif:id="13" d="M238.032,218.325c-0,0 -11.752,-3.613 -29.371,-3.085c-17.829,0.534 -26.641,10.265 -26.255,20.411c0.356,10.176 9.642,18.898 26.255,16.436c16.825,-2.494 25.158,-12.876 29.371,-16.822" style="fill:none;stroke:#000;stroke-width:5px;"/>
    <path id="_12" serif:id="12" d="M248.162,250.603c-6.234,0 -10.13,-3.896 -10.13,-10.129c-0,-12.258 -0,-24.516 -0,-36.774c-0,-12.765 -18.248,-19.483 -37.479,-14.95" style="fill:none;stroke:#000;stroke-width:5px;"/>
    <path id="_11" serif:id="11" d="M370.049,143.653c-16.643,0 -30.142,-13.498 -30.142,-30.171c0,-16.643 13.499,-30.142 30.142,-30.142c16.673,0 30.172,13.499 30.172,30.142c-0,16.673 -13.499,30.171 -30.172,30.171Z" style="fill:none;stroke:#000;stroke-width:5px;"/>
    <path id="_10" serif:id="10" d="M293.419,140.805l34.043,0l-34.043,0Z" style="fill:none;stroke:#000;stroke-width:5px;"/>
    <path id="_09" serif:id="09" d="M295.42,85.862l35.102,-0l-35.102,-0Z" style="fill:none;stroke:#000;stroke-width:5px;"/>
    <path id="_08" serif:id="08" d="M308.631,140.805c0,0 0.208,-54.172 0.297,-67.641c0.086,-12.964 14.685,-15.634 21.479,-15.278c6.794,0.356 16.292,2.314 16.292,2.314" style="fill:none;stroke:#000;stroke-width:5px;"/>
    <path id="_07" serif:id="07" d="M239.901,140.805l35.043,0l-35.043,0Z" style="fill:none;stroke:#000;stroke-width:5px;"/>
    <path id="_06" serif:id="06" d="M241.902,85.862l36.102,-0l-36.102,-0Z" style="fill:none;stroke:#000;stroke-width:5px;"/>
    <path id="_05" serif:id="05" d="M293.181,60.2c-0,-0 -6.498,-1.958 -13.292,-2.314c-6.794,-0.356 -21.479,2.314 -21.479,15.278c-0,13.469 -0.297,67.641 -0.297,67.641" style="fill:none;stroke:#000;stroke-width:5px;"/>
    <path id="_04" serif:id="04" d="M169.676,111.85l60.685,0c0,-12.838 -12.094,-28.51 -30.587,-28.51c-16.354,0 -30.141,13.499 -30.141,30.142c-0,16.673 13.379,27.679 28.628,29.37c8.384,0.916 14.934,-0.202 20.427,-2.369" style="fill:none;stroke:#000;stroke-width:5px;"/>
    <path id="_03" serif:id="03" d="M206.275,164.747c0,-0 -4.851,0.026 -13.436,0.05c-8.913,0.026 -16.811,5.745 -19.617,14.204c-6.694,20.183 -19.871,59.546 -24.819,74.836c-1.013,3.128 -3.951,5.788 -7.981,5.755c-3.619,-0.029 -6.853,-2.343 -7.98,-5.785c-9.909,-30.408 -24.031,-73.648 -24.031,-73.648" style="fill:none;stroke:#000;stroke-width:5px;"/>
    <path id="_02" serif:id="02" d="M135.177,175.207c0,-0 -7.724,-0 -13.319,-0c-8.969,-0 -16.921,5.768 -19.706,14.293c-5.933,18.164 -16.011,49.021 -21.094,64.604c-1.127,3.441 -4.331,5.785 -7.921,5.815c-3.619,-0 -6.853,-2.285 -8.01,-5.696c-2.18,-6.423 -13.156,-38.742 -23.069,-67.932c-3.67,-10.809 -1.73,-22.735 5.178,-31.823c6.908,-9.088 15.142,-12.742 26.531,-13.505c15.28,-1.024 25.531,3.649 42.157,2.44c24.488,-1.78 38.736,-18.683 38.736,-43.236c0,-24.553 -14.184,-45.237 -38.736,-45.237c-24.553,-0 -48.237,11.446 -48.237,11.446" style="fill:none;stroke:#000;stroke-width:5px;"/>
    <path id="_01" serif:id="01" d="M91.801,141.909l-0,-83.842" style="fill:none;stroke:#000;stroke-width:5px;"/>
</svg>
