<svg xmlns="http://www.w3.org/2000/svg" fill-rule="evenodd" stroke-linecap="round" stroke-linejoin="round" stroke-miterlimit="1.5" clip-rule="evenodd" stroke-width="50" viewBox="0 0 1080 1080"><path fill="#f2f2f2" d="M0 0h1080v1080H0z"/><g fill="none" stroke="#d9d9d9" ><path d="M15 621c59 59 227 299 227 296M181 677c-37 70-243 214-310 339M114 21c-14 24 19 234 27 214M-3 56c64 8 210-10 208-24M109-163A956 956 0 01-57 8M575 104c57 28 114 109 150 163M514 280c10-21 241-158 277-176M749-197c9 18-193 243-230 280M167 0c150 0 311-112 459-37M311-248C300-215 79 20-1 112M383 96c-2 27 12 328 51 408M743 293c-116 78-220 172-338 246M421 397c144 20 275 78 424 78M839 229c10 138 61 330-10 459M637 656c21 2 108 149 133 184M831 667c-24 63-375 201-416 248M1095 621c59 59 227 299 227 296M1261 677c-37 70-243 214-310 339M765-219C817-114 864-2 951 85M914-208C816-149 654-4 594 85M-206 291c83 48 234 248 208 245M10 293c-74 23-287 279-272 310M66 171c72 54 219 221 221 242M269 227C184 303-64 449 15 456M237-32c89 0 183 178 253 213M482-35C403 47 247 99 247 213M245 645c36 37 155 148 205 136M461 565c-67 23-238 231-267 262M943 624c23 67 57 229 64 229M1029 648c-51 59-150 103-150 181M98 421c48 22 32 159 61 195M373 440c-72 72-135 149-219 208M10-149C23-124 126 9 146 29M642 547c-46 22-181 87-211 117M-25 272c29 28 193-37 254-37M5 109c-23 69-68 130-91 200M882 205c-66 33-148 28-216 62M866-101c53 26 171 59 171 130M1047 560c-2-2-142 159-173 184M1077 56c64 8 210-10 208-24M1189-163A956 956 0 011023 8M1391-248c-11 33-232 268-312 360M874 291c83 48 234 248 208 245M1090 293c-74 23-287 279-272 310M1349 227c-85 76-333 222-254 229M1090-149c13 25 116 158 136 178M1055 272c29 28 193-37 254-37M1085 109c-23 69-68 130-91 200M114 1101c-14 24 19 234 27 214M109 917a956 956 0 01-166 171M749 883c9 18-193 243-230 280M167 1080c150 0 311-112 459-37M311 832c-11 33-232 268-312 360M765 861c52 105 99 216 186 304M914 872c-98 59-260 204-320 293M237 1048c89 0 183 178 253 213M482 1045c-79 82-235 134-235 248M10 931c13 25 116 158 136 178M866 979c53 26 171 59 171 130M1189 917a956 956 0 01-166 171M1391 832c-11 33-232 268-312 360M1090 931c13 25 116 158 136 178"/></g><g fill="none" stroke="#bfbfbf" ><path d="M743-48c90 0 179 43 272 43M255-69c62-31 242 133 270 144M-171 960c25 0 53 16 80 19 36 3 72 5 109 5M26-24C-7 27-5 174 42 187M189-27c14 29 26 150 26 187M165 581c18 10 143 190 168 160M314-40c-40 60-56 133-56 205M-33 597c53 0 152-37 195 6M-83 357c14 8 192-10 226-10M335 5c64-75 217-210 224-184M282 411c-30 127-122 411-72 373M90 443c-12 11-21 194-21 221M-27 451c0 81 5 161 5 242M559 467c-12 90 72 312 83 280M743 1032c90 0 179 43 272 43M909 960c25 0 53 16 80 19 36 3 72 5 109 5M717 283c6 0 148 94 168 109M674 352c19 9 140 94 149 104M762 85c1 61 204-22 227-8M791 157c57 0 168-4 224-13M1106-24c-33 51-31 198 16 211M290 312l136-171M255 1011c62-31 242 133 270 144M431 925c75 0 131 90 192 120M538 813c20 40 137 52 179 94M890 763c21-14 144 134 147 154M1010 736c-51 11-146 147-131 168M421 432c-36 18-211 64-211 80M461 408c62 31 81 113 128 160M962 368c28 56 37 131 83 176M218 248c30 0 119 89 147 107 20 12 44 14 61 32M298 117c0 87 9 180 0 267M1047 597c53 0 152-37 195 6M487 584c-59 59-69 168-122 235M341 536c-45 6-55 230-83 235M463 221c92 12 117 171 168 174M794-29c-9-21-64 212-69 272M658 597c-47 47-70 110-107 166M855 637c0 86-18 169 3 254M543-11c53-20 161 75 174 91M997 357c14 8 192-10 226-10M1034-64c0 45-100 315-112 403M823 91c-17 68-64 135-64 208M1053 451c0 81 5 161 5 242M26 1056c-33 51-31 198 16 211M189 1053c14 29 26 150 26 187M314 1040c-40 60-56 133-56 205M98 861c37 19 188-52 216-24M205 1029c-19 25 229-210 293-224M335 1085c64-75 217-210 224-184M1106 1056c-33 51-31 198 16 211M245 757c5 0 178 125 184 136M770 640c23 12-37 217-37 213M610 688c23 11 141-74 141-13M794 1051c-9-21-64 212-69 272M543 1069c53-20 161 75 174 91M1034 1016c0 44-100 315-112 403"/></g><g fill="none" stroke="#a6a6a6" ><path d="M549 37c82 64 166 124 240 198M-302 723L5 624M-1 208c4 79-55 173-45 245M-222 83c0-10 556-47 597 5M383 456c-8 0 34 14 43 19 21 10 163 89 163 122M855 381l56 334M330 595c-2-1 53 14 72 29 50 39 110 78 155 123M-49 733c10 5 182 279 182 288M5 456c29 0 59-13 88-19 90-18 180-33 269-53 9-2 35-9 35 5M701-296c1 127-78 361-78 360M450 405c70-70 250-263 261-285M685 429c25-25 128-150 160-181M-211 299c27 27 312-17 336 32M69 192c89-46 271-82 242-18M637 584l312-136M778 723l307-99M357 264c61-61 132-115 184-184M1079 208c4 79-55 173-45 245M858 83c0-10 556-47 597 5M1031 733c10 5 182 279 182 288M1085 456c29 0 58-13 88-19 90-18 180-33 269-53 9-2 35-9 35 5M869 299c27 27 312-17 336 32M967-173c-25 68-132 363-16 258M199 901c92 37 278 147 278 152M701 784c1 127-78 361-78 360M487 973c31-62 74-173 91-240M967 907c-25 68-132 363-16 258M709 872c42 0 258 8 258 43"/></g><g fill="none" stroke="#8c8c8c" ><path d="M61 27C45-5 243-197 303-200M645-328c-33 65-130 349-59 306M911-264c-27-2-89 289-66 341M-97 816c34-17 247-175 251-187M61 1107c-16-32 182-224 242-227M663 432c0 69 48 290 72 267M914 408c18 72 83 273 83 296M346 219c33 33 217 164 240 210M-83 397c26 34 372-72 365-5M-14 531c47 17 269-22 299-48M-102-27c31 0 394 22 309 64M437 843c22-45 101-191 101-232M645 752c-33 65-130 349-59 306M911 816c-27-2-89 289-66 341M983 816c34-17 247-175 251-187M237 328c3 47-73 101-51 269M997 397c26 34 372-72 365-5M1066 531c47 17 269-22 299-48M978-27c31 0 394 22 309 64M-102 1053c31 0 394 22 309 64M978 1053c31 0 394 22 309 64"/></g><g fill="none" stroke="#737373" ><path d="M799-320c-38 76-99 399-77 355M-198 203c97 0 435 29 445 40M799 760c-38 76-99 399-77 355M314 824c0 18 150-359 144-352M354 53c75 120 281 188 325 280M757 395c25 74 64 192 64 269M882 203c97 0 435 29 445 40M-65 933c16 0 150-116 171-133 7-6 122-83 83-83M1015 933c16 0 150-116 171-133 7-6 122-83 83-83"/></g><g fill="none" stroke="#595959" ><path d="M-17 669c69 69 216 339 216 339M285 627c18 27 204 208 210 208M82 123c20 40-10 315-3 301M365 360c33-11 264-247 264-259M933 29c-20 59-67 186-67 243M645-19C694 1 783-1 810 53M1063 669c69 69 216 339 216 339M597 525c40-41 266-112 256-112M637 773c11 11 281 47 272 56M645 1061c49 20 138 18 165 72M301 1045c10 0 125-112 125-114"/></g><g fill="none" stroke="#404040" ><path d="M389 144c9 4 130-128 104-128M319 507c32 0 152 68 166 96M1047 85c0 62-61 150-61 227M389 1224c9 4 130-128 104-128M-59 851c26 26 94 136 109 144M1021 851c26 26 94 136 109 144"/></g><g fill="none" stroke="#262626" ><path d="M89 597c14 43 160 222 160 222M638 299l116-120M214 138c0 33-32 176-32 176M680 623c22 0 337-88 337-88M666 938c37 0 188 33 194 33h1"/></g><g fill="none" stroke="#0d0d0d" ><path d="M588 354c18-18 35-41 54-60M112 645c20 20 32 47 52 67M606 927c6 6 54 11 62 11M218 90c0 14-6 33-6 50M872 572c-3 3-57 17-64 17"/></g></svg>