<svg xmlns="http://www.w3.org/2000/svg" fill-rule="evenodd" stroke-linecap="round" stroke-linejoin="round" stroke-miterlimit="1.5" clip-rule="evenodd" viewBox="0 0 1080 1080"><path fill="#e6e6e6" d="M0 0h1080v1080H0z"/><path fill="#ccc" stroke="#d9d9d9" stroke-width="26" d="M832-218c-7 43-91 240-40 203 3-2 5-6 7-10M786-31c53 6 206-11 210 66"/><path fill="none" stroke="#d9d9d9" stroke-width="26" d="M822 72h60"/><path fill="#ccc" stroke="#d9d9d9" stroke-width="26" d="M169-8c-7-12-10-27-20-37-5-5-10-6-7 0 3 7 57 157 94 120M186-118c23-71 110 222 110 150M116 72c31-15 150-102 150-50M149 145l207-86M-1-8c16-40 47-86 87-107 4-1 23-12 23-3M9 69L179-71M1079-8c16-40 47-86 87-107 4-1 23-12 23-3M1089 69l170-140M-221 879l210-134"/><path fill="none" stroke="#d9d9d9" stroke-width="26" d="M-114 229H62"/><path fill="#ccc" stroke="#d9d9d9" stroke-width="26" d="M-164 319c9-2 205-39 203-24M-128 342l207 27M-168 425l160-36M-54 165l50 214M49 119l10 263M-111 815l33 37c26 26 55 61 87 77h7M32 775a668 668 0 00-173 210M-61 502c-1-4-3-7 0-3 12 14 68 110 93 110M36 459c-42-21-160 134-160 170"/><path fill="#ccc" stroke="#d9d9d9" stroke-width="26" d="M-84 582c-6-5 22 31 30 40 12 16 59 97 83 97M6 579a432 432 0 00-140 173M392 502c-5 0 5-12 77-40 63-24 127-48 193-60 8-1 44-7 44-3M349 559c43-22 335-128 347-117M396 609l263-77M429 669c81-38 163-90 253-97M766 399c-25 25-120 315-47 256M829 372c-22 71-97 262-93 267 6 7 19 10 26 13M872 399l-60 243M899 399c14-10-14 60-17 70-30 98-31 141-53 276"/><path fill="#ccc" stroke="#d9d9d9" stroke-width="26" d="M632 599c18-18 227 6 260 10 5 0 28 7 20 0M639 535c84 0 118-17 237-40M639 455l233 24M676 405l176-26M669 375l253 17M609 49l-3 256M659 42l-7 233M716 45c-11 60-52 157-14 214M766 65l-10 237"/><path fill="#ccc" stroke="#d9d9d9" stroke-width="26" d="M542 129c-14 0 58-22 74-24 65-4 150-46 196 0M566 205l160-23M539 255c78-11 163-65 233-30M616 312l186-27M222 79c43-42 42 166 44 180M292 15l7 214M356 9l23 226M409 5l20 190M112 172l337-80M219 199c0 66 132-16 197-27M182 295l277-30M36 392c6-13 13 21 16 30 10 28 54 203 54 143M69 292c0-7 5 13 7 20l70 207M136 295l63 184M-61 455l250-86M22 509c60 0 114-38 170-57M-1 585c84-34 164-61 253-80M319 315c6 3 3 16 3 20 0 70-8 138 4 207 4 27 15 8 20-7M406 285c-24 71-26 244-7 244M489 252l-20 227"/><path fill="#ccc" stroke="#d9d9d9" stroke-width="26" d="M609 239L506 419c-6 9-17 34-14 43 1 2 6 3 7 3"/><path fill="none" stroke="#d9d9d9" stroke-width="26" d="M272 335h330"/><path fill="#ccc" stroke="#d9d9d9" stroke-width="26" d="M316 415l190-13M322 469c-1 14 293-19 304-20M192 719c-29-10 167-304 167-247M242 752c15-87 61-121 124-183M289 749l133-170M309 879l157-247M189 662l187 177M259 612l157 173M296 549l180 210M506 745c18 18 115 203 100 157M569 662c34 69 42 148 80 217M602 635l114 220M656 642c39 41 58 113 83 163M489 905l237-140M519 929l233-94M606 999l233-174M716 602l153 183M816 609c26 52 62 98 93 146M829 569l123 173M889 539l107 180M792 779l194-104M839 859l27-7M859 879l210-134"/><path fill="none" stroke="#d9d9d9" stroke-width="26" d="M966 229h176"/><path fill="#ccc" stroke="#d9d9d9" stroke-width="26" d="M916 319c9-2 205-39 203-24M952 342l207 27M912 425l160-36M966 189c20 81 50 160 76 240M1026 165l50 214M522 9c28-19 227-100 227-50M559 65L736-5"/><path fill="#ccc" stroke="#d9d9d9" stroke-width="26" d="M602-151c0 62 29 121 57 176 2 5 20 49 27 27M682-175c0 75 40 145 60 217M16 842l33-27c40-30 83-55 127-80 3-1 35-11 23 0M72 899c0-69 118-72 177-107M102 995c49-35 204-110 144-110M56 805l143 137M132 739l120 136M-128 555c12 6 124 224 124 200M-41 515c37 63 63 132 100 194 4 6 2 14 10 6"/><path fill="#ccc" stroke="#d9d9d9" stroke-width="26" d="M-148 605c-19-38 214-93 222-93s14 12 8 17M-84 675l176-50M-51 769c93-37 164-73 257-94M832 862c-7 43-91 240-40 203 3-2 5-6 7-10M912 859l-30 186M1026 855c0 62-20 122-20 184M822 929l204 50M786 1049c53 6 206-11 210 66M169 1072c-7-12-10-27-20-37-5-5-10-6-7 0 3 7 57 157 94 120M186 962c23-71 110 222 110 150M266 882l93 163"/><path fill="#ccc" stroke="#d9d9d9" stroke-width="26" d="M89 1055c62-47 112-89 193-86 10 0-9 16-16 23M116 1152c31-15 150-102 150-50M-44 1025c18-53 76-110 120-143M-1 1072c16-40 47-86 87-107 4-1 23-12 23-3M9 1149l170-140M-18 975c55 16 110 77 167 77M56 925l110 84M129 859c63 53 115 86 153 153M46 165c24 31 49 74 63 110 3 7 23 61 23 44M96 112c26 52 31 46 83 117M172 75l64 117M79 209l150-47M129 332c83-40 82-40 167-73M-124 49c13 0 212-129 190-84M-98 115C-39 57 121 1 56 65M-84 182l213-67M-44 19c34 34 62 191 100 156M46-28l136 190M489-88l-47 213M566-45c-18 53-27 107-40 160M639-11l-60 223M342-58c41 41 150 230 180 230M426-91C467-9 544 47 582 132M552-115c47 0 69 107 84 137M826 262c-28 0-170 162-170 190M996 335c-47 47-124 74-124 140M772 802c41 40 68 91 107 133M539 219c-30 30-45 77-67 113-7 12-28 62-26 60M476 159c-24 47-117 146-117 196M539 145c-39 78-95 146-117 234M882 45c10 30 20 181 20 207M1009 12c-9 66 11 144 20 207M552 442c-11 0 21-28 30-37 26-21 129-115 114-130M529 752c21 41 86 110 127 130M686 712l256-107M239-55C291 50 438 52 506 142M469-121C371-23 258 75 212 212M549 725c-9-17 63 28 70 34 69 53 142 102 203 163M806 625c-65 40-245 249-220 350M339 719c45 45 105 204 150 250M462 715c-89 45-146 197-216 267"/><path fill="#ccc" stroke="#d9d9d9" stroke-width="26" d="M729 105c5-8 13 3 17 7 56 57 123 104 180 160M909 69c-72 78-122 165-170 260M969 815l33 37c26 26 55 61 87 77h7M1112 775a668 668 0 00-173 210M99 285c66 0 138 92 203 114M226 249c-104 26-102 205-104 276M1019 502c-1-4-3-7 0-3 12 14 68 110 93 110M1116 459c-42-21-160 134-160 170"/><path fill="#ccc" stroke="#d9d9d9" stroke-width="26" d="M996 582c-6-5 22 31 30 40 12 16 59 97 83 97M1086 579a432 432 0 00-140 173M399 452c43 44 74 176 93 227M482 465c-30 31-114 195-153 167M1019 455l250-86M1079 585c84-34 164-61 253-80M952 555c12 6 124 224 124 200"/><path fill="#ccc" stroke="#d9d9d9" stroke-width="26" d="M1039 515c37 63 63 132 100 194 4 6 2 14 10 6"/><path fill="#ccc" stroke="#d9d9d9" stroke-width="26" d="M932 605c-19-38 214-93 222-93s14 12 8 17M996 675l176-50M1029 769c93-37 164-73 257-94M1036 1025c18-53 76-110 120-143M1079 1072c16-40 47-86 87-107 4-1 23-12 23-3M1089 1149l170-140M1062 975c55 16 110 77 167 77M956 49c13 0 212-129 190-84M982 115c59-58 219-114 154-50M996 182l213-67M1036 19c34 34 62 191 100 156M356 1089l23 226M409 1085l20 190M509 1022c-17-5 36-46 203-97 12-3 24-3 14 7M522 1089c28-19 227-100 227-50M559 1145l177-70"/><path fill="#ccc" stroke="#d9d9d9" stroke-width="26" d="M602 929c0 62 29 121 57 176 2 5 20 49 27 27M682 905c0 75 40 145 60 217M-124 1129c13 0 212-129 190-84M46 1052l136 190M489 992l-47 213M566 1035c-18 53-27 107-40 160M639 1069l-60 223M342 1022c41 41 150 230 180 230M426 989c41 82 118 138 156 223M552 965c47 0 69 107 84 137M1009 1092c-9 66 11 144 20 207M239 1025c52 105 199 107 267 197M469 959c-98 98-211 196-257 333M956 1129c13 0 212-129 190-84"/><g><path fill="#b3b3b3" stroke="#bfbfbf" stroke-width="26" d="M656-98c10 11 176 127 126 77M-168 9L32-88M-14 5c-6 6 24-14 33-20 7-4 143-79 127-46M22 55c4 2 5-1 7-3 17-17 120-73 100-33M-4 142l136-80M46-18L99 92M112-61l70 150M-41 345l40 174M-164 432l153-3M-138 575l190-40M-11 612c-46 61-71 100-63 103 7 4 13-8 20-13M66 589C8 628-15 731 2 695M106 609C96 622 3 714 46 725M146 635L82 749M-28 629c35 43 87 67 134 96M79 595l70 87M126 569l100 146M376 189c-33 0 50-5 66-7 80-10 158-7 237-7M399 262c-16 0 44 0 60-3 52-12 95-34 147-14M429 212c71-4 140-18 210-23M442 132l117-30c17-4 81-29 93-17M399 45c63-19 110-69 160-110M202 169c21 30 85 231 114 203M269 95c6 34 69 217 93 217M326 55l103 204"/><path fill="#b3b3b3" stroke="#bfbfbf" stroke-width="26" d="M169 295c46-45 90-92 147-126 5-3 53-34 53-27M206 365l223-160M259 552c-14 7 31-25 43-33 23-15 148-112 170-90M316 649c-63 63 151-93 226-140M532 292c54 54 87 124 140 177M592 239c-61 0 62 107 94 160M632 222l77 107M499 435c5-55 159-131 193-183M562 462l154-113M686-15c28 29 42 112 56 144 7 15 24 22 24 0M766-75l56 197M829-101l50 176M672 55c23-15 155-71 160-40M706 119c63-23 123-67 190-67M699 245c-6 0 18-3 37-10l10-3c39-11 159-42 123-7M736 315c0-47 88-34 133-50M772 359l127-57M769 175l67 164M839 195l50 147M732 449c-11-12 1 7 4 10 36 36 81 84 133 96h13M762 415l160 120M822 389c45 31 112 61 140 110M709 545c61-45 237-190 183-136M779 565l140-93M529 529c0 15 104 77 120 93 5 5 30 27 30 20M616 512c7 14 67 97 90 97M652 479l90 103M522 609l150-137M599 669c29-29 77-98 120-104M789 615c-28 56-67 107-87 167-2 8-2 16 7 7M876 622c-46 46-68 111-100 167M936 665c-45 60-69 83-87 150M739 665c52 95 45 98 97 167M839 622l80 190M232 735c-33-16 90 154 90 140M276 695c36 49 69 100 103 150M369 669c43 73 46 69 80 143M242 829c57-42 96-80 167-84M276 905c64-41 190-50 190-126M162 415c-25 0-143 195-66 157M206 455c-15 18-94 89-57 107M252 462l-36 107M322 492l-76 140M62 499l150 90M122 439l90 66M152 379c51 58 51 55 110 116M56 65c14 29 14 61 26 90 5 12 27 56 27 44M106 32l26 123M136-18c40 40 41 106 60 160M-14 149c68-60 78-38 186-70M52 235c55-19 109-39 164-60M912 9l200-97M886 72c-44 15 151-101 123-47M856 152c-54 0 95-51 143-77M899 162c24-12 62-43 90-33M886 235c49-22 95-63 150-63M919 15c-23 23 20 148 20 184M952-15l54 217M1066 5c-6 6 24-14 33-20 7-4 143-79 127-46M1076 142l136-80"/><path fill="#b3b3b3" stroke="#bfbfbf" stroke-width="26" d="M929 402c17 34 20 129 50 143 5 3 3-11 3-16M986 365c21 17 10 154 40 154M1039 345l40 174M916 432l153-3M939 489c7-2 134-50 107-7M942 575l190-40M1069 612c-46 61-71 100-63 103 7 4 13-8 20-13M1146 589c-58 39-81 142-64 106M1052 629c35 43 87 67 134 96M9 869c0-18 101 117 87 103M32 822l94 127M82 822c16 35 24 73 60 90M112 759c34 42 56 99 104 123"/><path fill="#b3b3b3" stroke="#bfbfbf" stroke-width="26" d="M22 915c-39-19 137-120 144-133v-3M72 919l120-90M79 999l170-134M252 949c-32 24-54 68-60 106-1 13 6 12 14 4M349 919l-60 103M409 932c-32 39-43 75-57 123M229 989l140 63M289 929c58 52 59 48 120 93M399 652c12 17 61 117 70 117M459 605c11 53 23 98 50 144M512 585l74 137M416 715l140-66M456 789l143-97M366 272c-33 33-84 90-84 140 0 9 2 15 10 7M399 332c-10 14-131 159-43 83M456 355l-37 94M316 355c63 46 62 46 126 90M-24 185l56 147M22 179l50 126M-64 302l133-37M-18 369c0 67 121-59 180-90M632 802c0 26-53 130-13 130M696 795c-3 7-89 199-24 134M762 819l-26 123M809 875l-43 177M656 982c10 11 176 127 126 77M652 919c57 39 109 76 164 120M549 872c73 0 145-23 217-23M1066 149c68-60 78-38 186-70M1089 869c0-18 101 117 87 103M1012 239l50 96M1056 185l56 147M1016 302l133-37M1062 369c0 67 121-59 180-90M-168 1089l200-97M-94 675l90 127M-14 1085c-6 6 24-14 33-20 7-4 143-79 127-46M22 1135c4 2 5-1 7-3 17-17 120-73 100-33M46 1062l53 110M112 1019l70 150M429 855c6 18 35 208 60 157M479 802c21 42 24 96 43 140 4 7 27 70 27 50M546 815c32 101 16 106 56 160M356 992c95-69 92-70 190-133M386 1059c49-61 129-100 193-144M399 1125c63-19 110-69 160-110M686 1065c28 29 42 112 56 144 7 15 24 22 24 0M766 1005l56 197M829 979l50 176M672 1135c23-15 155-71 160-40M136 1062c40 40 41 106 60 160M892 885c4 26 54 189 54 157M929 869l43 163M976 835c31 85 34 83 56 170M846 972c50-31 105-67 166-67M886 1025l170-76M912 1089l200-97M996 692c-34 34-50 63-67 110-6 18 0 43 0 40M1042 705L929 869M932 729c28 27 74 103 100 103M986 675l90 127M886 1152c-44 15 151-101 123-47M952 1065l54 217M1066 1085c-6 6 24-14 33-20 7-4 143-79 127-46"/></g><g><path fill="#999" stroke="#a6a6a6" stroke-width="26" d="M819-83c-5-5 29 15 34 18 13 9 74 50 74 66M764-35l21 22c17 17 35 32 52 47 3 3 33 29 23 19M351-2c-44 6 77-33 89-37 4-1 41-9 35-3M323 57c32 3 96-39 134-46 4 0 9 4 6 7M552 11c-2 2-7 3-7 6l6-6 9-10 29-39 47-55 29-29M-111 890c-21 7 27-5 35-7 33-4 67-12 100-12M-117 842c71-16 136-8 136-17M-55 786l-5-4s19 4 28 3c32-3 73-6 104-15 6-2 10-1 7-7M-51 694l118-16c10-1 23 5 12 3M-29 591c-12 0 19-4 26-6 28-7 57-11 86-16 0 0 49-6 38-11M-59 507c61-7 60-14 111-8M7 465c31-31 69-60 94-96 2-2 3-2 0-4M-35 391c-6-6 34-40 71-80 9-9 21-17 29-28h-1M-120 103l43 16c30 11 76 31 106 31"/><path fill="#999" stroke="#a6a6a6" stroke-width="26" d="M13-51C-4 1-11 59-20 114c-4 26-13 53-16 79 0 3 1 4 3 1M48 161c0-5 18 15 21 18l62 63c3 3 30 33 22 17M101 135c3 4 54 86 78 110M240-51c-38 9-59 61-79 93-14 24-39 73-16 57M332-37c-26 35-47 71-64 112-1 4-8 40-13 40M857 563c9 17 46 137 46 154M807 591c7 26 14 126 42 135M944 519c0 37 13 84 24 119 5 16 9 32 16 47l8 17M741 266c0 41-2 83 0 124 2 26 11 52 11 77M648 257c3 51 4 101 4 152 0 6-4 60 3 66 3 3 0-6 0-6M388 401c11-11 99-36 127-42 19-3 41-7 41 0M412 443l59-26c25-9 77-1 90-28M393 319l-10-6c-3-2 6 2 9 1 15-1 27-5 41-8 29-5 75-20 104-5M477 491c-2 2 0 2 0 4 7 20 12 136 30 130M553 461c7 22 14 40 16 62 0 1 0 62 6 74 1 2 2-5 2-8M596 434a526 526 0 0119 168M541 750c-4 2 17-20 22-25 21-26 45-49 68-74 11-12 35-41 28-41M513 722c-4-2 1-4 3-8 22-31 55-55 79-85M620 834c-4 0-12 2-12-3 0-12 67-98 75-109l18-27c2-1 13-14 10-12M649 851c32-31 41-87 72-118M711 766c-2 1-7-1-7 1 0 3 5 2 8 3 29 8 58 26 87 36 18 6 38 13 52 27 1 1 2 2 2 0M716 815c-4-9 33 14 41 18 30 13 58 11 78 38M664 882c-5 0 28 16 33 17 25 8 50 15 74 27 10 5 19 11 26 20 4 4 10 17 10 12M819 997c-5-5 29 15 34 18 13 9 74 50 74 66M764 1045l21 22c17 17 35 32 52 47 3 3 33 29 23 19M864 962c-4-5-4-10 1-7 28 19 55 52 78 75M969 890c-21 7 27-5 35-7 33-4 67-12 100-12M963 842c71-16 136-8 136-17M1025 786l-5-4s19 4 28 3c32-3 73-6 104-15 6-2 10-1 7-7M1029 694l118-16c10-1 23 5 12 3M1051 591c-12 0 19-4 26-6 28-7 57-11 86-16 0 0 49-6 38-11M1021 507c61-7 60-14 111-8M1087 465c31-31 69-60 94-96 2-2 3-2 0-4M1045 391c-6-6 34-40 71-80 9-9 21-17 29-28h-1M892 203c-26-25 77 102 80 102M939 194c29 37 29 36 53 76 3 6 18 36 20 33M960 103l43 16c30 11 76 31 106 31"/><path fill="#999" stroke="#a6a6a6" stroke-width="26" d="M1093-51c-17 52-24 110-33 165-4 26-13 53-16 79 0 3 1 4 3 1M428 111s-21 0-11-5c37-18 85-11 124-12 20 0 19-1 38-3l18-2h-10M428 50c5 5 107-17 123-19 25-2 36 8 25 8M277 298c-2 3-9 12-13 15-2 1-6 4-5 2 11-33 60-86 81-118l19-34c1-1 3-9 0-9M209 243c-13 21 19-23 30-37 14-19 27-39 42-57 2-2 8-9 6-11M315 461c8 16 20 90 45 90 5 0 3-2 4-8M353 410l67 139M157 579l4 50c5 31 12 61 19 92l9 34 4 20-2-9M235 549c7 7 30 167 30 190M251 822c-22-14 41 1 49 3 33 7 84 13 105 41M237 925l4 4c27 20 136 56 136 64M209 822c0 43-13 85-20 127l-2 60M91 866c-12 39-24 79-28 119-2 14-5 29-4 42 0 3 6 19 6 14M351 1078c-44 6 77-33 89-37 4-1 41-9 35-3M323 1137c32 3 96-39 134-46 4 0 9 4 6 7M383 730c0-5-6 4-8 7-6 6-40 52-40 61 0 3 9-1 10-1"/><path fill="#999" stroke="#a6a6a6" stroke-width="26" d="M356 747c-13-6 38 1 45 2 41 3 87 5 116 34M703 34c-8 31-26 60-32 92l-7 37c-2 16 6 33 1 47M207 370l-27-3c-2 0-7-3-7-1s16 4 18 4l6 1 8 2c13 2 151 4 116 38M151 461c-6 0 4 1 6 2 12 6 24 13 36 16 26 9 76 11 91 35M288 625l9-6c32-13 63-24 96-32 5-1 41-9 28-2M495 811c-1-1-6-15-2-9 21 31 30 101 38 140 1 6 9 37 2 37M413 883l22 106c3 14 16 42 8 50M552 1091c-2 2-7 3-7 6l6-6 9-10 29-39 47-55 29-29M779 515c-3 2-8 7-8 4 0-2 4-1 6-2 13-7 27-11 40-18 22-9 44-17 67-24 9-2 21-6 31-6 5 0 20 4 14 4M777 319c-5 3 34 0 40-1 28-5 56-12 84-16 12-2 34-5 44 1 5 3-1 4-4 4M777 194c-4 2 32-5 39-7l75-16 32-6M767 82c53-6 112-47 126 1M13 1029c-17 52-24 110-33 165-4 26-13 53-16 79 0 3 1 4 3 1M240 1029c-38 9-59 61-79 93-14 24-39 73-16 57M332 1043c-26 35-47 71-64 112-1 4-8 40-13 40M1093 1029c-17 52-24 110-33 165-4 26-13 53-16 79 0 3 1 4 3 1"/></g><g><path fill="gray" stroke="#8c8c8c" stroke-width="26" d="M487 18c-5 5 10-25 14-32 10-20 41-88 66-88M1039-54c-25 51-54 130-50 189 1 14 8 27 8 40M-27 223c20 21 62 8 88 16"/><path fill="none" stroke="#8c8c8c" stroke-width="26" d="M61-9v118"/><path fill="gray" stroke="#8c8c8c" stroke-width="26" d="M-51 458c44-44 105-100 160-128M-67 554c-82 0 163-8 178-8 6 0 11 2 11 8M37 677c-16-16-11 112-11 136M141 493c0-5 24 10 29 13 24 14 49 32 77 32M135 343c14-13 23-30 40-42 5-4 30-11 30-14M413 229c-2-6 8 0 10 0h56c25 0 59-8 80 2M671 66c-5 0-8-2-2-5 27-18 57-6 82-19M487 1098c-5 5 10-25 14-32 10-20 41-88 66-88M485 626c34 0 107-47 136-19M807 335c-8 0 14 41 16 54 6 25 7 57 19 80M1053 223c20 21 62 8 88 16M378 362l45-5c53-11 110-32 163-32M458 138c52 0 135 14 184-11M290-49C248-7 189 60 189 122M167 397c-32 0 130 31 136 37M311 154c-22 44-67 132-98 163M514 450c0 62 17 126 29 187M562 794c0-21 139-173 155-192 7-8 14-19 0-19M690 263c0 75 3 150 27 222M743 125c-10 0-13 8-2 8 61 0 124-10 184 5M794-67c7 15 102 75 131 112"/><path fill="gray" stroke="#8c8c8c" stroke-width="26" d="M797 373c-33 16 69-7 74-8 29-9 58-23 88-27 26-3 53 1 78-8M1029 458c44-44 105-100 160-128M1013 554c-82 0 163-8 178-8 6 0 11 2 11 8M877 541c6-2 23 60 26 66 23 50 42 102 62 152 1 4 2 11 5 11M301 653c-4 0-16 4-16 8 0 3 5-2 8-3l45-13c42-13 88-30 128-30M202 557c0 69 2 140 19 208M447 810c0-39 32 149 43 171M671 815c43 44 116 52 160 96M887 757c-17 0-125-8-128-6M1039 1026c-25 51-54 130-50 189 1 14 8 27 8 40M578 45C628-5 714-80 695-86M-89 1023c6 6 152 1 104 32"/><path fill="none" stroke="#8c8c8c" stroke-width="26" d="M61 1071v118"/><path fill="gray" stroke="#8c8c8c" stroke-width="26" d="M991 1023c6 6 152 1 104 32M597 895c31 32 83 66 104 107M207 1034c-11-6 20 2 30 3 27 2 65-8 90 2 4 2 19 19 22 19M277 767c25 26 78 15 106 43M66 671c9 43 0 93 19 131M290 1031c-42 42-101 109-101 171M250 874c37 19 88 28 128 48M143 829c0 55-42 143-42 213M-145 922l11 3c17 2 32-3 48-3 38 0 77-13 115-13 8 0 17 4 24 8M-59 749c21 21 148-35 189-8M794 1013c7 15 102 75 131 112M578 1125c50-50 136-125 117-131M935 922l11 3c17 2 32-3 48-3 38 0 77-13 115-13 8 0 17 4 24 8M1021 749c21 21 148-35 189-8"/></g><g><path fill="#666" stroke="#737373" stroke-width="26" d="M-102 2C-107 2-7 33 7 47M31 503c-5-5 4 10 6 14l32 64c1 3 10 16 10 8M69 471c25 25 32 70 58 96M189 237c25 12 51 14 74 32 6 4 15 16 22 16M117 85h10c8 2 14 2 22 2 28 3 60 8 88 8M-123 149c42 14 87 22 128 42M543-38c26 26 62 45 86 69M557 58c-2-2-7 44-8 51-6 27-16 64-16 90M426 69c0 35 24 96 8 128M458 287c0 32-11 70-11 102M375 287c12-3 16 79 16 120M173 429c12-12 41-74 26-88M93 274c0 58-14 116-14 173M325 581c-8 8 8 111 8 125M178 754l13-11c24-15 42-16 67-16M90 821c-3-4 59-32 77-14M63 927c-11 0 91-13 115-13M47 1005c8-7 99-21 99-16M565 693c-6-6 9 3 13 5 14 7 43 43 56 43M511 735c29 29 78 35 104 62M477 498c-14-13 93-41 93-48M298 498c25-12 56-45 75-64M333 554c0-37 82-52 82-91M626 330c35-17 76-61 117-61M631 397c28-28 80-78 120-78M818 426c-29 29-40 79-48 120-1 4-7 19 0 19M834 634c24-48 98-50 131-83M679 575c0 22-6 59 11 75M733 575c23 24 24 85 24 118M973 343c0-15 28-44 37-56 4-4 21-28 16-24M983 421c22-22 32-66 54-88M949 285c-8-8 45-47 45-62M978 2c-5 0 95 31 109 45M879 34c0-31 40-58 40-88M631-105c-5 5 5 5 8 11 26 38 57 58 72 104M58 189c22-22 52-46 77-64 2-1 15-7 8 0M90 234c0-23 84-76 104-96M381-19c-28 27-48 70-56 109M453-35c-21 42-96 99-96 144M823 762c0 27 28 105 48 125M890 791c13 13 12 50 19 67 3 8 16 19 16 27M653 119c0 12 61-40 82-18M647 186c18-17 83-42 83-27M551 282c20 19 14 79 14 104M399 767c-2 0 16-16 22-21 23-19 45-42 66-64 4-3 3-3 3 0M829 247c25-25 70-53 106-53M957 149c42 14 87 22 128 42M1058 671c-17 35-40 85-40 126M1013 479c0 37-4 78 8 112M-102 1082c-5 0 95 31 109 45M311 826c0 59-29 119-29 179M399 1013c37 0 102-43 134-62 4-2 16-4 16-10M543 1042c26 26 62 45 86 69M978 1082c-5 0 95 31 109 45M751 1055c15 6 64-90 75-101M879 1114c0-31 40-58 40-88M818 823c6-11-19 108-19 126M631 975c-5 5 5 5 8 11 26 38 57 58 72 104M381 1061c-28 27-48 70-56 109M453 1045c-21 42-96 99-96 144M365 829c0 47-16 95-16 144M1055 831c-12 13-43 155-40 158"/></g><g><path fill="#4d4d4d" stroke="#595959" stroke-width="26" d="M-118 66c-4 5 6 6 11 8 24 12 144 21 125 59M119 645c4 3 12-4 19-8 32-21 94-35 120-35M141 701c-4 0 119-71 98-30M223 431c11-21 24-61 40-77M-14 293c0 17-3 117 0 120M119 7c-2-2-5-5 0-5 44 0 122-12 163 8 5 2 6 5 3 8M501 53l-3 128M666 471c10-10 32-45 32-61M522 591h3c31-21 88-36 88-32M354 581c23 22 9 90 24 120M647 271c21-10 67-42 88-21M962 66c-4 5 6 6 11 8 24 12 144 21 125 59M791 82c0 21 3 91 16 104M261 143c19 0 72 36 85 48M5 858C-9 845-21 959-9 959M114 866c-3 0 5-2 8-3 17-5 52-8 69-8M618 661c21 0 49 24 67 34 7 5 42 17 42 24M845 562c26-17 74-37 106-37M602-54c26 26 51 57 77 83M866-115c0 37-43 104-69 130M-3 511c0 19 43 81 56 94M1066 293c0 17-3 117 0 120M917 295c11-11 18 123 18 142M1085 858c-14-13-26 101-14 101M1077 511c0 19 43 81 56 94M119 1087c-2-2-5-5 0-5 44 0 122-12 163 8 5 2 6 5 3 8M407 890c18-36 87-36 115-64M778 802c-23 47-10 111-35 160M887 711c13-24 48-53 48-80M602 1026c26 26 51 57 77 83M866 965c0 37-43 104-69 130"/></g><g><path fill="#333" stroke="#404040" stroke-width="26" d="M141 43c35 0 67 6 98 6M36 337c0 17 9 43 1 58-2 6-1 24-1 23M536 517c0 12 43-22 64-22M721 497c7-13 26-56 32-63M856 330c8 17 4 34 12 49 3 6 1 26 1 23M497 323c0 15-4 29-4 43v16M275 437c14-14 20-35 29-54 2-3 2-18 5-18M296 231c-5 3-52-32-77-32M425 629c-2-8-2-48-6-48M673 885c16-16 10-71 22-83l1-1M984 690c-10 10-19 33-32 45-4 4-6 10-8 15 0 1-3 8-3 5M977 930c3-2 27-74 27-77M849 115c0 12 5 37 11 43 5 5 0 30 0 36M595 118c0 18 2 48-6 63-2 5 0 23 0 22M247 906c14-14 8-35 16-52 3-7 6-28 4-27M468 907c8-8 63-24 72-24 2 0 2 2 0 2"/></g><g><path fill="#1a1a1a" stroke="#262626" stroke-width="26" d="M104 36c11 0 26 8 43 8M277 434c0 9-24 40-24 40M427 634c0 6-5 32 8 32M512 527c7-4 24-11 32-11M507 290c-6 10-8 18-8 29M301 231c7 7 30 3 30 13M611 76c-13 0-16 33-16 43M837 292c8 9 22 29 22 40M723 495c0 4-12 24-19 24M845 92c4 4 6 19 6 24M1008 639c0 18-14 44-27 56M680 882c-9 8-12 20-3 29M979 924c0 16-22 29-8 43M251 900c0 13-14 23-14 35M43 282c-7 19-6 37-6 56M435 919c14-7 21-13 37-13"/></g></svg>