<svg xmlns="http://www.w3.org/2000/svg" viewBox="-545 -540 1080 1080">
  <style>
    @keyframes t0{0%{opacity:1}8.333333%{opacity:0}}@keyframes t1{0%{opacity:1}50%{opacity:0}}@keyframes t2{0%{opacity:1}16.66667%{opacity:0}}svg{background-color:#8a2be2}#t0,#t1,#t2{--visible:1;--bookmarkIndex:-1;--latched:0;--playMode:0;--masked:0;--blendMode:0;--pressureEnabled:0;stroke-linecap:round;stroke-linejoin:round}#t0{--timeOffset:68.39995;--speed:10;fill:#fffeec;stroke-opacity:0;fill-opacity:1;stroke-width:10}#t0 .frame{animation:t0 1.2s calc(var(--index)*.1s) steps(1) infinite}#t1,#t2{stroke:#ba7cdb;stroke-opacity:1;fill-opacity:0;stroke-width:3.026753}#t1{--timeOffset:28.00004;--speed:2}#t1 .frame{animation:t1 1s calc(var(--index)*.5s) steps(1) infinite}#t2{--timeOffset:29.90003;--speed:5}#t2 .frame{animation:t2 1.2s calc(var(--index)*.2s) steps(1) infinite}
  </style>
  <g id="w0" class="weave" transform="rotate(1 1437 3923) scale(.83)">
    <g id="t0" class="thread" transform="translate(-76 25)">
      <g id="f0" style="--index:0;opacity:1" class="frame">
        <path d="M-319 86h-7l-12-4h-10l-19 5-19 3-14 5h-2l-6 2-7 4-8 8-5 6-1 3v8l3 5 6 4 7 2"/>
        <path d="M-308 89l-4-2-10-3h-9l-7-2h-11l-19 3-19 8-33 11-8 6-3 7v3l1 2 4 7 7 5 3 2 10 2 11 2 25 1 13 2 5-1h10l16 3h9l7 1 11 1 3 1 14 1h27l27-2 11 2h18l6-1 9-4 2-1 5-1h3l5 1h7l5-2 8-1 14-7 5-5 4-8v-3l-2-3-2-4-2-2-4-2-15-3h-13l-5 1h-23l-4-2-5-1-15-1-11 2-24 2-14 3h-7l-5-2-20-1-8-4-8-3"/>
        <path d="M-314 89l2-1h5l4 3 6 1 6 3 7 1 18 6 11 2 4 4 1 2v4h-9l-8-1h-6l-9 2-13 1h-14l-15-4-10-5-7-5M-395 138l8 2 5 4 6 9 6 11 4 14 1 10 2 9v14l-3 10v8l2 5 2 2h7l3-1 1-2v-37l2-7 3-7 3-4v-1l4-3 3-5 3-2 3-3 14-7 4-1 4-2 3-4 3-6v-7l-17-5v-1"/>
        <path d="M-313 153l-2 2 6-1 9-4 7-7v-4l-3-3-7-5-12-3-2-1-1-2M-156-147l-17-17-15-20-9-16-5-16-2-7-1-15v-15l6-15 6-7 2-2v4l-2 3-4 11-1 10-1 12 3 24 4 13 5 11 5 7 6 8 3 4 11 14 14 11M-161-94v-8l-2-10-2-6-2-3-4-8-3-5v-1l4 3 7 12 4 10v4l2 4M-116-123l-3 1-16-4-13-7-12-9-4-4h1l12 6 21 12 5 1 4 2M-204-193l-17-24-5-7-6-13-5-13-5-18-1-9 1-6 2 9 2 6 5 19 11 23 11 17"/>
        <path d="M-110-150l-3 1h-8l-9-1-10-3-18-9 1 2 4 3 12 7 10 4 14 2M-169-108l-1-6-5-15-4-9-8-9-8-6-18-4-17-1-12 3-6 6-1 4h2l8-6h19l5-2 6-1 7 4h3l4 2 3 3 5 2 1 1 5 10 5 12 2 3M-226-177l-2-2-11-4-13-3-6-1-7 1-8 3-1 1 9 2 6 1 5-2 15 1 5 2 5 1M292 397l6-6 15-20 10-10 11-8v2l-3 6-5 6-23 21-3 4-8 7M272 387v-15l-1-6 1-7v1l2 1 1 1-1 24M250 390l-11-16-5-6v3l4 9 6 5v2l6 7M267 415h-20l-4 2-1 2 2 1 18 3 5-2h21l13-1-1-2-4-2-10-1-3-1h-13l-11-2"/>
        <path d="M271 416l-6-3-5-1h-10l-6 1-4 1-3 1-2 2v2l1 3 15 3 12 2h15l21-3 3-2v-1l-2-2h-2"/>
        <path d="M299 391l-11 12-14 12-3 3h1l2-1 9-8 6-4 6-6 3-6M274 414l-1 1h-2l-8-8-2-3-1-1v4l2 2 3 3 1 3 3 2M-90-27l-2 2-5 5-3 7-1 8 1 7 3 7 7 7 9 4 16 1 7-2 6-2 9-10 2-4 1-4 1-4-1-6-4-10-4-4-5-3-11-4h-13l-9 3"/>
        <path d="M-86-30l-5 2-4 2-4 6-4 10 1 10-3 3-5 1-4-1-3-2-3-4-1-5 3-14 3-8 6-7 9-6 5-2 8-2 7 1 4 1 2 2v6l-3 3-4 1"/>
        <path d="M-103-3l3 9 3 5 3 5 9 9v4l-2 2-4 1-4-1-6-2-3-3-8-9-5-13-2-10M-80-34l11-1 10 2 11 5 10 10 2-1 1-2v-10l-4-6-4-4-10-5-12-2h-14l-10 2-4 2"/>
        <path d="M-43-25l3 4 3 14v3l-2 9-5 12v2l2 2h2l4-2 5-8 3-17 1-11-2-6-7-9-3-4-6-3M-38 4"/>
        <path d="M-38 4l-5 8-6 6-5 3-6 2-8 1-4 1-1 4 1 3 2 2h3l16-3 10-6 11-13"/>
        <path d="M-64 24h-13l-19-4-1 3v3l5 6 8 3 8 1 16-2 8-2M-33 17l3-4 1-3 2-14v-6l-2-4-1-1-2 7v7M181 118v2l-2 3-12 18-10 11-8 10-1 1-5 1-7-1-2-1-2-4-5-7-4-7-4-2-1-3 3-3 4-3 11-3 10-8 6-1 7-7h2M201-10l3-10 9-35v-11l5-33v-14l-2-11-2-7-3-5-6-4-4 1-6-2-6 1-3-1-2 12 1 14-2 19 1 13 2 10-4 18"/>
        <path d="M191-138l-2-2 8-1 10 2 6-1 1 1 6 1 3 4 1 9-4 30-7 29-3 26-3 11-5 22-4 12-1 1"/>
        <path d="M173 127h2l7-8 3-2v-1l3-3 4-9 3-17 2-21V43l3-20 1-16 2-12v-25l2-14 2-28 2-14 1-14 3-8 2-16-1-7-4-5-4-4-5-2-4 1-8-1-6 2-1 1-2 36-3 17v16l-1 13v7l-3 16v15l-4 20-9 34-2 19-5 30v11l2 12v17"/>
        <path d="M206-138l-2-2h2l12 1 2 1 6 4 5 1 4 5 2 6-4 13-17 33-4 12-4 10-11 44-1 13v3"/>
        <path d="M193-21l2 3 1 6 1 1 9 9 6 7 10 7 4 7 3 2h4l12 5 13-1h6l13-2 8-4 4-1 4-2 4-4 7-10 2-1v23l-2 7-3 10-4 8-4 5-3 2-5 2-7 1-8 3-16-2h-8l-9-1-11-3-14-5-5-1-15-8-5-5-5-7-2-7v-4l1-1"/>
        <path d="M280 44l1 6 12 24 3 17-10 13-9 7-2 2-2 4 1 4 3 3h2l11-2h8l16-10 7-10 1-7v-3l-3-5-4-7-4-10-4-12-5-37 2-4"/>
        <path d="M314 107l6-6 3-7 2-7 4-6 1-3 2-20v-4l-2-2-2-5-4-2-6-5-3-2-4-5-3-10-4-7-2-11-1 1-3 9-2 6v14l1 8 3 7 3 19 3 6 2 2"/>
        <path d="M327 72v2l2 8v15l3 19-2 4-20 4-4 2-9 2-5-1-12-4-2-2v-1l2-2 11-7 8-3M319 45l-2-1-2-4-3-5-2-4-2-15 1-18-1-3-2 1-1 1-14 32-7 10"/>
        <path d="M331 55l-2-2-12-17-4-8-5-22-2-1-2 3v12l2 14 5 17 6 8"/>
      </g>
      <g id="f1" style="--index:1;opacity:0" class="frame">
        <path d="M-318 99l-14 2h-13l-8 1h-10l-5 2h-6l-7-3h-5l-12 4-14 2-6 2-4 4-2 3-1 2 3 2 6 1 4 1h4l7-3h3l11 5 7 1 12 5 1 1v3l-7 4 1 4 3 2h11l10-2h16l14 2h8l8-1h14l12 1 20-1 22 1h6l14 3 7 1 9 2 28 1 7-4h6l5-2 3-3 2-3-1-4-5-5-14-3 1-1 12-6 7-2 6-4-1-3-8-4-12-1h-17l-9 2h-25l-4 1-5 4h-7l-6 2h-6l-21-3-7-2-1-3 2-3v-1l-1-2-3-1h-4l-12-2h-5l-6 2-14 1M-398-131l5-6 11-8 6-7 5-3 4-1 3-2 6-7M-358-165"/>
        <path d="M-358-165l-17 20-3 2-7 6-2 1-3 1-2 2-1 2M-355-87l1-2 5-7 5-3v-1l3-4 10-7h1l4-4h2v2l-16 15-8 6-2 3M-315-52l3-4 12-12 8-9 4-2v1l-1 2-1 2-2 4-12 12-3 5M-281-32l1-4 6-8 10-9 3-1-8 12-9 10M-223-96l-3 2-4 5-1 2 4-3 3-3 1-3M-223-96l1-2M-314-1l-2 2-2 2-6 10v1l7-5 4-7M-222-12l-3 1-1 2-4 4-5 9v2h1l5-5 7-10v-2h1M-175 14l-3 2-7 11-3 7v3l15-24 1-1M-123-53l-1 14v17l1 7-1 22 1-5 1-1 3-16v-14l-2-10v-7l1-4M-175-68l-1 3 2 20v24l-1 11 3 17M-172 7"/>
        <path d="M-172 7l-1-41-2-12v-11M-211-64v-3l-1-1v21l-1 11V3l2 8 1-1V6l1-16v-16l-1-7M-214-59v51l1 7v9"/>
        <path d="M-213-4v14l2 8 1 2h1l1-4V-6l-1-9-1-30-2-11-1-16M-253-57l-1 2 1 60-1 11v9h1l2-11v-26l-2-14v-20M-305-57l-1 3 1 82v1l1-1V10l1-8 1-18v-15l-1-6-1-13M-358-42v8l1 18 2 19 1 6 1 3h1l1-12-6-33v-7"/>
        <path d="M-294-54l16 2h7l12-1 5-1 31-1M-223-55h5l1 1-1 1h-4l-1-2M-223-55l-1-2-1-2-6 1M-292-15h19l14-4h17l4 1h28M-287 11l3 1 4 1h8l8-2M-264 11l5-2h7l6 1h7l5-1h15l6 1 1 1 2 1h-25l-11 1h-10l-8-2M-264 11l-4-1h-8M-290 46l23 1 12-3 9-3 13 1 3-1h15l5-1h5l8-2h8M-189 38h2-2"/>
        <path d="M-189 38l-3 1h-14l-10 3-15 1M-288 88l3 2 16 2 49 1 8-1h21l8 3-13 2h-26l-13-3h-25l-8 2h-16l-9-3M-305 144l-5-1-6 1-9 4-13 11-5 5-7 12-4 13-1 26"/>
        <path d="M-309 143h-3l-3 2-14 7-7 5-10 11-4 7-3 13-2 12v24l2 13v32l-1 6-1 2-3 2h-3l-3-1-2-4-1-18 2-10 2-9 2-18 3-13v-37l-1-3-2-11-5-6-3-2-1-2v-5l2-3 5-4 9-2M-198-263l-1-3 9-14 7-6 8-5 7-1 6 1 7 5 3 5h-3l-11-5h-9l-5 1-5 4-4 5-1 3M-241-276l-2-3v-6l-1-7v-8l3-11 2-5 3-3 2-1 9 1 1 1-1 1-8 3-1 3-5 13-2 13M-230-210l-3-3-10-14-10-15-3-4h-2l-1 2 1 4 8 13 4 5 7 7 5 6M-276-182l-4-1-8 3-9 5-7 5-9 10-4 7v4l2 3h1l3-5 2-6 3-5 11-11 7-4 4-1"/>
        <path d="M-285-178l6-2 8-1 3-1M-268-182l-8-2-2 1M-244-151l-5 2-7 7-6 13-2 9v4l1 8 4 9 11 11h4l5-1v-1l-7-3-3-4-6-6-2-3-3-9v-8l5-14 7-9 2-2M-236-213l7 9 5 5 8 9 1 1M-215-189l1 1-1-1M-215-189l-5-9-9-9-6-8"/>
        <path d="M-235-211l12 12 4 5 4 3 3 4h1l-2-5-4-5-6-4-11-15-2-1M273 363l-1-9 1-19h2l1 4-2 23-1 4M327 360l1-1 5-6 7-9 11-10h1v1l-2 5-11 12-2 3-6 3-1 1M236 371l-3-2-11-15-4-3 3 9 4 4 3 4 7 5M265 415l-3-1-3-1-7 2h-5l-2 1-1 2v1l4 3h14l6 2h3l15-2h8l1-1v-1l-1-1-9-4h-7M-77-29h-3l-4 2-8 8-3 4-2 9 1 7 1 6 5 7 11 4h6l12-1 12-5 5-7 1-6 1-7-2-4-3-5-11-11-3-2-6-2-6 2"/>
        <path d="M-86-34h-2l-8 6-4 5-5 8v6l-1 7 1 5 2 6 6 11 2 7-1 7-2 2-3 2-5 1-7-2-9-8-3-6-3-4-5-13V1l-1-5 2-10 4-11 5-10 11-10 4-2 3-1 7-5 6-1 2 1 6-2 3 7 2 4-3 7"/>
        <path d="M-101-49l-1-2 10-6 10-3 8-1 4 1 8-1 4 1h5l4 3 4 1 4 3 4 1v1l3 2 7 8 1 4 2 8v7l-2 5-1 2-4 1-21-18-5-2-17-4h-4l-9 3-4-1-3 1"/>
        <path d="M-31-43l2 1 2 1 2 6 5 5 3 13 1 10-1 5v7l-3 14-2 7-2 4-5 3-4 6-6 2-2 2-9 1-7-3-3-3-1-4 2-4 4-4 3-1 2-5 4-1 2-3 2-1 3-4 4-7 3-11-6-20"/>
        <path d="M-41 19l-5 2h-2l-11 1-8 3h-7l-3-1-5 1-5-2-4-2-3-3-4-1-2-3h-6l-3-1-3 1-1 2-1 3v7l2 7 1 2 6 4 3 1 4 2 7 2 5-1 10 3h4l2 1h4l10-4h9l3-2 3-1 4-3"/>
        <path d="M-25 26l-3 5-4 4-5 4-16 7h-3l-8 2-13-1-22-4-5-2-8-5-2-1-1-4M-115 31"/>
        <path d="M-115 31l11 1h9l14 3M-63 46l17-2 6-2 11-8 4-6 3-8 2-6-1-5-1-1M-48-54l-5-4h-8l-7-1-11-1-14 2-18 9-10 10-3 5-1 6 1 2 4-1 5-2 17-13 16-6M161-140v2l3 5 1 7 1 11 5 26 1 9 2 10-1 14-2 20-11 46-3 11-4 34-1 14 1 17v6l2 13-3 6-4 4-5 3-5 1-7 3-15 3-2 2-1 4 2 5 2 2 2 1 21-4 10 2 9-3 14-2 10 1 7-1 1-1 8-2-1-1h1l1-3 1-4-4-23-1-13V58l4-27 14-51 2-28-2-17-4-23v-5l-5-18-3-8-1-9-3-5-1-8-4-1-4 1-3-1"/>
        <path d="M164-139v2l2 9 2 4 3 3M189-1v3l-1 11 1 9v11l12 1 7 3 7 1 5-1 5 1 11 4 6 4 29 8 9 1 6 2 1-1 8 3 3-1 1-1 11-35-1-2-2-2-7-1-11-5-21-5h-8l-5-1-17-5-9-4-9-6-4-3-9-9-7-11-1-3-1-4"/>
        <path d="M280 16l5-1 13-7 4-5h2l2 1 4 5v2l-3 18 1 2"/>
        <path d="M309 15l-1 2-1 7-4 18-1 6"/>
        <path d="M309 11v20l3 20v3l2 12v5l2 9-1 5 1 5v1l-5 4-3 1-3-2-4 1-2-2h-1l-4-21-2-2-1-6-2-2-6-7-5-4-6-5-2-4M186-140h7l8 2 5 2 4 5 2 5 3 10 1 16-2 16v6l-1 15-3 13-2 16"/>
        <path d="M181-140l2-2h6l6-1 3 2 4-1 4-1 2 3 8 5 2 5 1 14-1 26-3 13-7 26-3 12M302 86h-2l-4 11-2 7 1 2 1 1h6l7-2 6-4 3-7-2-12"/>
      </g>
      <g id="f2" style="--index:2;opacity:0" class="frame">
        <path d="M-304 105h-25l-15 4-5-1-6-5h-5l-10 6h-5l-5-2h-5l-4 1-5 1-3 1v4l3 3 2 1 8-1 6-1 23-1 11 1h17l6 1 4 2 2 2-1 6h-7l-10-1-9 3-6 1-5 3-3 2v2l3 1h23l21-3h11l11-3h8l7-1 3-2 2-3 1-4-15-1-6-2v-4l3-3 8-3 1-1v-2l-4-1h-11l-3-1M-180 117l-9-1h-23l-9 3-13 1-5 2-1 2-1 2 3 3 11 3 1 1v1l-5 3-18-1"/>
        <path d="M-177 112h-3l-4 1h-5l-3-1-6 1-17 6-22 1-2 2v6l1 1 7 3h7l3-1h1v1l-6 4h-3l-14-1-7 2h-7v2l2 2 4 1h6l8 3h28l3 1 5 1 21-2 13 1 6-2 1-2 1-3-2-1-24-1-3-1-3-4v-1l2-2 5-2 6-5 1-1 2 1 4-3 3-5v-2h-5M-394-80l1-3 7-6 2-3 15-13 11-11 8-10 10-8 4-5 8-7 7-7 3-2v2l-3 6-8 9-12 12-5 3-2 3-11 9-29 29-7 6M-373-44l5-7 27-28 10-13 10-9 13-15 8-8 7-4 4-1 1 1-6 7-17 18-26 24-21 23-9 7-1 2M-338-23l2-4 31-29 17-18 12-14 6-5 4-1v3l-5 6-13 15-11 10-10 12-17 16-10 6-16 17M-311 7l2-3 4-6 41-45 10-9 9-12 8-6 2-1-7 10-12 13-7 11-10 12-20 22-13 10-5 6M-271 29l3-5 16-17 13-17 12-18 19-18 3-1-1 3-7 11-20 23-8 12-11 11-8 10-6 6-10 13M-234-136l-2 1-7 10-4 9v1l6-4 10-15M-363 5l-3 3-10 13-3 4v1h1l16-18 2-3h3V4M-331 28l-3 2-9 15v2l10-7 4-4 1-3 1-8h-1l2-1M-202-109l-2 1-2 2-7 10h1l4-4 8-10 1-2-2 1"/>
        <path d="M-217-102v94l2 13-1 67 1 8 1 1h2l4-22v-6l-3-28V12l-3-27v-12l-1-11 1-13 2-10v-13l-1-15M-190-93v3l2 4v53l2 9v13l1 8v15l1 5 1 50v5l2 1 3-18-1-39-3-11V-7l2-11-2-4-1-2v-14l-1-5v-10l1-10-2-7v-14l-2-10M-156-90l-1 6v40l1 8v22l4 42v15l-1 15-2 8v8l2 14 1 3 2 1 4-28v-7l-1-9V31l-1-15v-31l-1-13-2-13-1-14-3-13v-25l-1-3M-159-148l-2 3v19l2 7 1-30M-151 114l-1 2v2l1 15 2 9 2 1 1-3v-14l-1-5-1-2M-221-164v29l1 6v3h1l2-2 1-7-1-24M-252-105l-2 25v26l2 12v52l-2 30v26l1 6v9l1 4h1l3-26-1-31v-83l-1-16M-290-146l-2 21-1 36 2 12 1 18 2 13v34l-1 32v27l-3 13v10l1 26h1l4-18 1-8-2-32 2-7 1-20V-9l-1-13v-35l-2-6-1-19M-350-28h2l2-1h10"/>
        <path d="M-336-29l12-2h12l9-2 6-1 13-2h11l8-2 13 1 13-3h12l10-1h33v1l-4 1h-12l-16 5-46-1-16 3h-9l-12 3h-7l-13 1-17-1M-336-29h-3M-351 1h18l24-5 26-4h33l12 2h5l7-1 6-2 36 1M-184-8h1-1"/>
        <path d="M-184-8l-1 2h-31l-5 1h-43l-10 2h-15l-8 2h-9l-30 4h-7M-354 27l2-1 13 1 13-4 9-2h12l22-5 29-1 6-1h49l12 1h2v1h-15l-10 3h-27l-17 4-16 2h-15l-10 1h-23l-13 1M-333 51l3 1h16l14-1 10-3 16-1 21-3 14-2 32 1M-207 43h4l1-1h-3l-2 1"/>
        <path d="M-207 43l-31 5h-19l-16 1-12 3-15-1h-7M-343 79l12-1h21l11-2 15-4 20-3 27 1 6-2h13l5-1h5l5 1h13l6 1"/>
        <path d="M-335 75h3l3 1 16 1h11l23-7h4l30-1 13-2h25l11-2h14v3l-17 4h-36l-5-1h-9l-10 3h-7l-8 2h-6l-1-1M-261 104l23-1 20-3h24l8 3h10l-11 1-11 2-10 3-24-1-12 1-6-1-12-1h-3l-2 2M-334 152l-7 4-3 3-5 9-2 11-3 22v22l-2 45v14l2 13v14l-1 3-4 2-5-1-2-2-2-7v-11l4-24 1-16 2-9 1-16 2-10 1-43 3-5 2-8 6-6 1-1h2l1-1"/>
        <path d="M-356 187l-1-4 1-5v-6l-1-3v-12l2-1h1l1 2 1 3v17l-3 11v10M-264-255v2l3 7 3 4 2 6 4 6h1l1-5-6-10-1-3-6-8M-224-318l5 5 2 5h3l2-3v-3l-2-3-2-1-4-2-6-1-1 1M-157-282l1 3 1 5-1 11 1 1h2l2-1 1-3v-4l-1-6-5-8M-315-147l-2 1 3 10 3 4h4l-5-7-3-7M-239-93h-1M-240-93l-1 1 1-1M-240-93h1M-239-93l4-1 8-5h2v3l-4 5-3 1-6-1h-1v-2M273 322v10l2 2h2v-16h-1l-1 1M361 324l-4 4-5 9h2l6-5 4-6-2-1M209 339h-2l1 1 5 8 3 1v-4l-1-3-7-6M275 417l-5 1-3-2h-9l-3 2 2 3 12 1 4-2 3 2h7l2-1 1-1-2-2-2-1M-70-16h-2l-4 3-3 6 1 4 2 4 3 1 4 2 6-2 2-1 2-3v-8l-3-3-1-1-4-2h-5M-71-52h-5l-3 2-14 9-7 8-8 14-4 10-1 10 2 11 6 11v3l-3 3-6 3-11 4-7 1-4-3-6-7-3-7-3-11-2-17 2-12 3-11 9-16 10-13 11-10 9-6 13-4h17l4 1 2 1h2"/>
        <path d="M-73-52l2-1 6 1 16 5 8 7 9 10 3 6 2 6 2 31h12l11-5 4-5 4-5 1-8v-8L6-29l-7-15-2-3-7-8-5-3-3-4-6-6-15-7-11-3-16-2-15 2"/>
        <path d="M-25 8l-2 7-8 7-7 5-9 4-18 3-1 12v14l6 5 8 3h10l5-2 11-6 14-12 5-5 5-9 5-16 2-5 1-6 2-5 2-15"/>
        <path d="M-62 33l-4 1h-6l-18-2-6-2-5-4-9-3-4-4-7-2-5 1-3 3-3 3-2 4v9l6 11 8 8 5 3 10 6 13 3 13 1 11-1 24-5M-16 43l5-3 2-3 6-4 4-5 3-7 1-4 1-5V7l2-5v-5l1-4-1-5v-6L5-28l-5-9-6-8"/>
        <path d="M7 0L5 17l-6 17-5 8-8 9-11 9-14 9-16 3-13 1h-18l-13-2-8-5-12-10-5-7v-4l1-2 2-1h8l12 1 15 4h6l18-2 11 1M3-23v-9l-2-9-5-6-2-7-4-4-3-3-8-7-27-10-14-5-6-1-10-1-7 1-14 5-8 6-3 7-1 3 1 2h8l9-2 13-4 12-1 10 2 18 1 10 6M-69-20h-6l-4 4-2 4-2 8 3 7 3 3 2 1 4 1 7-1 7-6 2-3-1-7-2-6-4-4-5-1-2 1M166-140l-1 1-9 31-1 7-2 15-4 14-2 10-1 8-6 15-11 41-3 17v8l-4 27v3l1 2v1l36-3h14l10-2h11l8-2h9l17-3h19l15-3 19-4 7-1h5l6 3-1-17-3-10v-5l-3-3-1-6h-3l-15-1-17 4h-12l-39 7-20 2h-2l-1 2M167-137l-1 1M164-137h-2M162-137l-1 1 1-1"/>
        <path d="M162-137l4-1 20-1 4 1 2 2 2 6 1 27 3 28-1 16v33l-3 27v34l1 34-1 30 1 31-5 1-5 1-9-2h-14l-3 2-4-27-2-56V18l-2-13 2-12"/>
        <path d="M158 87l-1 1v7l-2 5-3 5-7 6-11 8-20 5-1 4v9l1 1h13l4-1 7-1 7-2 19-2 6-1h8l4-3h2l2 2M191 100v-2 2"/>
        <path d="M191 100l1 5 10 22-4 2-13-1-2 1M267 7l10-10 5-7 2-1h1l7 12 9 27 4 6 5 8 4 3 6 10 1 3-1 2-5 3-5 1-2-1-5-8-6-5-5-4-2-1-2-2-11-4h-13M167-137l-1-2 11-1 12-1 3 1h5l4 1 3 4 2 5 1 5 1 27-1 11 1 7-1 5-1 12-2 8-6 34-7 16-3 9-3 6-4 9"/>
      </g>
      <g id="f3" style="--index:3;opacity:0" class="frame">
        <path d="M-332 113l-3-3h-7l-8 4-8 2v2l18 2 11-5h18l3 2v5l-1 3v4l2 1h3l6-2 5-4 2-3v-5l-1-1-8-2-1-1-4-2h-8l-3 1h-4M-197 120l-1 3-1 1-14 3-3 2-1 2-1 6 3 1 7 1h10l2-3 3-6-8 2v-2l9-8 4-2M-261 154l-3-16-1-16-1-4v-10l-2-17V53l-2-13v-81l-2-9-1-17v-40l1-10-1-3v-21l8-3h4l1 1 1 2v9l1 7-2 37 1 51-2 16-1 26 1 7v54l4 30 1 14 1 26-1 19M-177 149l-2-45V41l-1-25-3-28v-50l-1-12v-18l-1-9v-26l-1-3v-9l1-2h2l2 4v6l2 10v18l3 20 1 16 1 41 2 42-1 49 2 28v12l2 9-1 32M-241 154l-1-3-1-17v-34l-1-14V64l1-9 1-42v-84l-3-19v-10l2-16-3-12v-19l3-1h3l5 4 1 2v15l3 20-1 12v33l-1 18v20l-1 15 2 15v26l2 28 1 66-2 15 1 5M-216 118l-2-79V-63l-2-12 1-30-2-6 1-17-1-11v-6l2-2 5 3 1 4v10l2 14v11l-1 11 1 18-1 24 2 19v28l2 8v27l-3 22v28l3 22v12M-197 103V74l-4-49v-39l-1-8 1-50 1-5 1-40 1-7v-3l-2-6v-5h3l1 2 2 14v18l3 17-1 29 1 8v12l-1 7 1 26-1 35 1 5v73"/>
        <path d="M-386-9l1-2 6-6 16-14 21-24 9-11 6-5 11-15 9-9 9-12 20-21 5-7 18-16h4l1 2 1 3-5 8-17 17-11 13-11 10-15 19-14 13-16 16-16 21-17 17-8 6-2 3M-380 15l2-2 32-32 8-10 19-18 10-11 8-11 37-38 17-20 15-13 3-2h2v2l-7 16-15 18-7 14-15 15-7 8-9 9-18 15-23 24-11 9-11 12-5 7-7 6-10 11-3 3h-1M-350 19l-8 7M-358 26l-1 3-3 2 4-5M-358 26l18-18 23-27 31-31 26-23 20-22 7-5 11-12 15-13 5-2v3l-8 11-9 12-7 6-10 11-17 22-13 13-13 15-12 8-13 12-20 21-13 16-2 1-2 5-15 13-4 3M-360 45l1-1M-334 52l-3 1v-1l6-5 12-12 23-30 33-34 33-37 15-14 12-15 14-12-1 10-4 7-5 5-12 15-15 15-16 17-20 24-18 18-15 20-18 18-7 8-7 7-1 2M-396-37l3-6 23-22 12-14 27-26 10-13 16-16 9-11 12-11 4-3 2-1v1l-6 11-16 21-13 13-12 10-13 15-13 12-9 11-7 11-14 13-1 3-11 11-1 2-3 1"/>
        <path d="M-409 6l43-3 24-4 34 1 13-2h17l17-3 11-4 26 1 15-3h48v8l-1 1-3 1-12 2h-32l-22 3h-22l-18 2-20 4h-16l-11 1-30-1-21-4h-21l-7 1M-398 19l-2-2 6 1h12l25-2h9l12 2h7l13-2 19-1 15-3 6-1h10l11 2h11l11-3 20 1 5-2h32l5-2h12l4 1 2 2 1 3-3 2-6 1-7 1-12 2-13 1-11 2-16 1h-19l-8-1h-25l-23-1-20 1-41 8-22-1-8 2h-5v-2M-399 49l4-2 19-5h10l10 2h9l21-3 23-2h26l6 1h19l23-3h23l17-3h28l12 3 2 1-2 3h-14l-7 2-10 4-14-1h-25l-74 3-6 1-12 2h-10l-12-2h-7l-5 1h-19l-14 3-12-1M-392 69l2-2h3l3 1h11l34-5h22l22-3 47-1 18-1 14-2h7l2 1 9 1 20-3h7l4 3 10 1 1 1-4 2-9 2h-8l-9 1-9 1-18 3h-27l-8 1h-44l-29 2h-8l-7-2h-4l-16 3-8 3-20 1-8-1M-388 88l5-2 16-1h69l15-2 35-1 19-3h33l8-1h38l3 1 1 3-1 2-11 5h-21l-44 3-14-3h-15l-16 2-17 1h-13l-6-1h-24l-8 1-13 3h-31M-362 277l-1 26-3 13-1 10v11l2 5 3 3h4l6-3 1-2v-12l-6-32v-12"/>
        <path d="M-59-66l-2-1h-3l-5 2-6 5-11 5-14 12-6 8-4 15-4 8-6 16v12l3 10 5 7 3 3 5 7 4 4 8 5h5l5 4 11 3 8 6 4 8 1 5-2 6-2 4-5 7-3 2-6 4-12 3-12-2-14-6-14-8-9-11-11-17-8-31-3-23-2-19v-16l4-14 2-12 3-7 15-23 11-9 18-12 11-6 16-7 5-1h11l5 4 3 4 4 8 3 15 1 2-1 5-4 7"/>
        <path d="M-62-66v-2l1-1 8 1 13 4 6 5 1 5 3 5 2 15 3 6 2 7 3 22 1 13-5 16-6 11-11 8-9 6-21 10-6 3-4 6-1 3 2 4 8 14 6 8 2 1 4 1 5 1h7l6-2 10-2 19-8L3 83l9-9 3-6 6-19 2-21V8l-2-26-4-24-3-7-3-13-6-12-6-9-10-12-9-6-10-5h-7l-4-3-11-5-11-1h-10l-6 1-2 3"/>
        <path d="M-69-10h-2l-1 1-1 5 3 2h3l2-2v-4l-1-2-3-1M-93 99l-1 2 4 2 2 2h7l2 1h5l4 2 9-1 11-3 5-1 5-2 5-3 1-2v-1l-2-2-5-3-8-3-8-2h-15l-5-1"/>
        <path d="M-69-14l-5 2-2 2v8l3 2 4 1h3l4-2 1-5-2-5-1-1-5-3M162-141v-2l-2 8-7 18-4 15-9 22-9 17-5 13-7 16-4 16-5 9-3 10-6 16-4 15-2 14-2 6v4l2 5v2l2-1h3l4 1 12-1h13l6 1h9l7 1 32-1 10-1 7-2h4l6-1h8l15-4 18-1 16-2h6l4-1h5v-5l-3-8v-6l-4-20-13-4h-8l-10 2h-18l-7-1-33 1-20 5-6 1-4 1h-4l-7 2 5-12 10-24 14-32 4-13 6-15 1-5M161-139l-1-1M160-140h-2 2"/>
        <path d="M160-140h9l17 2 7-1 3 2 1 13-1 5 1 13-1 5 1 14-1 6 3 18-1 14-2 11v12l-1 20 4 87v38l1 11h-2l-5-2-10 1-6 1-15 2-5-1-3-5v-12l4-23 4-41-2-21-2-9 1-12-2-10-2-26 1-10v-10l1-5"/>
        <path d="M161 95l-5 8-7 8-13 9-2 1-5 2h-3l-3 2-2 3 1 10 9-1 8-2 17-1 9-5 4-1 5 2h5l4 1M253 10l3 1 4-6 4-1 4-1 5 3 3 9 9 22 2 2 2 3 4 3 11 4 5 1 2 1 1 2v10l-2 4h-5l-14-7-8-1-11-4-2-1h-7l-4-3-3-8h-6l-3-2M177-136h-2l1-1 9-1 9 2 6 11 2 13v17l-2 15-1 20-1 9-2 9-3 18-1 16-2 7"/>
      </g>
      <g id="f4" style="--index:4;opacity:0" class="frame">
        <path d="M-371 15l4 13 2 1 6 1 12-15 10-10 12-14 13-10 19-21 21-20 2-3 15-14 5-7 8-6 4-5 11-12 4-7 1-3v-1l-2-2-5-8-2-2-1-4h-2l-16 15-11 12-5 7-8 8-9 14-5 5M-373 5l4-6 42-46 5-8 9-9 7-7 18-20 7-6 21-21 5-7 6-7 1-3-2-1-2-2h-2l-1 1h-3l-6 2-7 7-4 2-16 15-16 19-7 10-24 27-13 17-10 11-8 12-10 12M-350 32l7-7 15-19 5-6 11-13 26-25 8-6 5-6 4-2 5-5 18-20 7-6 5-7 11-7 4-5v2l-3 5-6 12-14 19-10 10-15 17-13 10-7 7-17 18-14 17-13 13-10 7-1 2"/>
        <path d="M-366 9h16l11-4h6l4 2h6l17-4h13l7-1 14 1 22-1 6-1h16l24-4h15l6-1 4 2h2l4 2 1 1v2l-8 4-10 3h-33l-12 1-26 1-19 4-17 1-21-1-11 3h-5l-3 1-23-1-3 2h-6l-1 5 2 1h5l10-2h6l18 3h18l12-2h6l9 2 24-1 11-1 13-1 11-2h8l5-2 10-3h5l5-1h7l12 1 2 1 1 1h2v16l-2 3-2 1h-8l-10 4-8-1h-9l-20 4-22 2h-32l-7 1h-43l-10 1h-11l-16-3-7 1-5-3-1-2M-369 54l-6 1v1l1 1h9l15-4h6l11 3h14l12 1 16-3h14l10-1h23l12-3h23l9-2h21l4 2v4l-1 1-3 1-15 3-14 1-6 1h-55l-12 2h-15l-8 2h-13l-5 1-45 1-5 2h-2l-2-2-1-4"/>
        <path d="M-359 19l2-2 3-2h4l3 2h5l14-4h5l12 3h7l12 2h28l10 1 15-1 3 1h6l6-1h6l2 1v1l-15 4-21 2h-19l-8 1h-32l-11 4-7 1h-4l-8-1h-39M-182 151l1-21-3-11-2-35V68l1-6v-9l-3-13V22l-2-9V-1l-2-10 1-21-3-10v-7l2-10v-14l1-8 2-8-1-25-1-3v-8"/>
        <path d="M-189-133l-1 3 2 4 1 6v35l4 43v13l3 12v8l2 13v6l2 7v7l-2 11-2 18 1 54-2 11v22l-2 8-1 2-1 1-8-4-1-1v-3l-2-5-1-8-1-5-3-16V82l-3-23-1-22-2-12V14l-2-6V-6l2-10v-29l1-7-1-32v-20l-1-3v-11l-1-3v-9l1-1M-219-134l-1 2v13l2 19 1 17 2 25v17l-1 8v24l1 9v15l2 18v30l2 9v13l1 21 5 25 1 9 1 4v6l-1 2h-8l-6 3h-3l-3-2-9-11-2-9-1-29 2-16-1-52 2-38-2-14v-27l-2-8v-9l1-9v-23l-1-7 2-8v-12M-250-130l1-2v3l3 61 1 17-1 17v51l3 17v56l3 11 1 8 2 7 1 8-1 12 1 18-4 1-2-1-3-3v-11l-4-13v-27l-3-53V19l-3-15v-47l1-11-1-10v-18l2-3 1-9v-4l-4-7 1-15M-363 315l1 6M-362 321l-1 14-1 4-2 3h-3l-3-1-6-12-5-5h-2v6l6 8 3 7 2 1h-3l-3-1h-5l-4 1v2l8 3h2l4-2h6l3-1h12l4-1 2-1h9v-1h1l4-4 2-5 1-1h-4l-8 2-4 2-3 3h-4v-3l3-8v-6l-2-2h-1l-2 10-2 4-1 1-1-9-2-8M-362 321v-1M-368 349l-3-2M-371 347"/>
        <path d="M-371 347l6 1 4 2h9l7-3h4l4-2 9 1"/>
        <path d="M-366 349l-1 3h11l9-1h7l5-2 7-2 2-1-13-1-4 1h-23l-7 2M-362 310l-2-13 1-6 1-1 3 4 1 9-2 7h-1M-50-134l-5-2h-5l-7 1-15 7-9 3-10 3-5 4-10 7-5 6-18 26-8 17-3 11-3 8-5 19-2 32 1 22 6 27 4 13 5 8 3 9 8 11 5 5 5 7 6 5 3 4 4 2 16 6 13 4 12 1 3 1 16 1 9-3h9l16-5 12-6 6-5 6-4 4-8v-9l-5-7-6-5-5-2-11-2h-8l-9 1h-4l-6 2h-3l-13 2-18-5-19-11-4-3-6-9-5-5-3-5-1-6-4-9-3-22v-19l4-11 5-9 5-9 9-11 11-12 13-9 16-7 3-3 6-7 2-7"/>
        <path d="M-39 83l6-5 5-8 4-3 10-19 5-15 1-20V9l1-12-1-14-2-11-3-12-4-13-5-9-3-3-7-5-2-3-17-10-5-5-1-7 1-16-1-3 1-7 6-6 6-2h7l5-2 7 1 8 6 4 1 6 5 10 10 4 3 4 6 6 8 3 6 3 3 3 7 4 3 1 4 6 36v26L35 7l-2 29-2 10-1 6-4 13-1 12-2 3-1 5-6 14-3 4-5 4-4 1-3 4-6 4-6 1"/>
        <path d="M-46-86l1 1 4 5 5 4 5 6 1 6 3 5 3 8 1 3 2 8 2 3 1 8 1 19 1 8-1 26-5 24-3 15-3 8-1 8 2 2 6-1 3-2 2-4 9-15 5-14 3-18 2-17L2-4l1-19-2-10-1-16-3-10-2-10-1-2-12-13-7-6-6-3-7-6h-1"/>
        <path d="M-23-61l-4-6-7-4-8-4-8-2h-4l-24 10-12 8-2 1h-4l-2-5v-6l3-3 8-8 6-4 14-5 7-1 20-1 4 2 11 1 2 4 9 4 3 4"/>
        <path d="M-64-80l-2-1-4 5-15 13-11 13-8 19-6 10-5 11-3 11-2 7-1 11 2 9v5l-2 3h-4l-3-4-3-5-3-12 3-27 3-15 14-26 8-13 9-9 10-8 4-3 4-1"/>
        <path d="M-127 0v4l4 13 3 5 6 17 5 5 5 9 5 5 4 6 4 1 10 3 26 4 4 1 8-2 15 1 3 2 1 1v2l-2 10-4 5-5 2-21 1-8-1-10 1h-6l-13-4-8-4-4-3-14-17-5-8-3-10-6-10-1-5V22l-4-19M-69-7h-1l-1 2 2 1h1l1-2-2-2M161-148v2l-21 39-11 18-15 26-13 29-31 55v2l3 5 9 6 11 10 6 3 5-1 5-6 6-11 15-31 8-14 2-7 5-11 20-33 2-7 6-12 13-20 1-4 2-3 5-9 2-1"/>
        <path d="M90 12l-2 1 11-1 13-2 5 1h9l7-1 7-1 6-1 5 2 8-1h8l6-1h11l7-1h6l20-2h15l2 16 2 19 2 17 1 3h-14l-9 3h-64l-7-1-15 1-14-1-6 1-12 2-11-1-8 2h-4l-3-1-2-42"/>
        <path d="M228 7V6l11-1h6l2 1 8 1 1 4v19l3 16-1 5-3 6-6 1-4-1h-4l-7 1-3 2-5-1-5 2"/>
        <path d="M259 56h-3l-6 3h-4l-2 1h-7l-6 2h-3l-4-2-8-1-2-3V41l3-5 6-4M161-144h-1 13l5 2 21-1 1 1v2l-1 18 2 16v25l-1 21-2 10-1 13 2 41 4 50-1 26-1 32v12l2 10-1 2h-2l-3-1h-10l-7-2-10 2-6-2-9 1-4-7-1-5 2-23v-8l1-15-4-38V24l-3-8-1-26 2-7-3-14v-18l3-5"/>
        <path d="M157 105l-10 11-4 2-4 4-2 3v11l24-2 2 1 4-3M252 15l-2 1v4l3 7 2 4 5 6 4 10 4 4 5 8 1 5-16 6-8-2-7-7-3-6-5-4-3-5"/>
        <path d="M259 41l-4-8v-5l-2-9-2-2"/>
      </g>
      <g id="f5" style="--index:5;opacity:0" class="frame">
        <path d="M-188 152l-1-10V66l-1-19V-1l1-25 3-14 2-11v-16l-2-7v-15l1-15v-32l-2 1h-14l-13-2h-12l-9-2h-12l-4 4-1 3 1 19-3 31-3 13 1 26-1 7v14l1 14 1 23v9l-2 19v13l2 17-1 36 4 21 2 6v13l2 5-1 6"/>
        <path d="M-247-135l-1-3h-1l-1 1-13 17-33 37-2 3-12 12-14 12-17 19-8 6-15 16-3 3-6 8-7 5-1 2 5 7v25l-4 23v4l1 4 2 2v-1l6-8 11-15 26-30 9-8 8-9 15-14 9-11 7-7 8-9 9-12 11-10 7-10 12-12 6-7 4-3"/>
        <path d="M-370 7l-1 8-2 16-2 22-2 8v5l1 2h4l13-3h11l16 2 34 1 29 3h16l6-2h8l9 1h42l12-1 6-3 5-1 1-1V53l-3-12-4-19V0l1-3h-4l-9 2-8 1-8 2h-28l-21 2-10 2-9 3-7 1-21-2-11-4-22 1-8-2M-42-137l-1 3 4 18 3 23-1 8-1 3-8 7h-3l-1-1h-6l-4 1-8 1-3 1-5 4-7 7-11 12-5 7-6 11-10 24-7 21v10l1 14 2 4 5 6 4 3 13 9 6 3 13 5 16 4 11 1h7l7 2 9 7 3 6 2 7 2 9-1 12-3 5-9 9-8 6-3 2h-11l-18 4-8 1h-10l-9-2-4-3-14-12-12-14-9-14-3-7-1-4-10-26-4-18-1-10v-7l1-6-1-35 5-33 3-26 5-15 5-10 8-11 6-6 10-8 13-7 5-2h5l9-4M-49-132l-2-1M-51-133"/>
        <path d="M-51-133l1 4-2 6-3 23v9l4 5 7 3 5 5 8 9 3 7 3 15 8 33 3 7 2 10v8l-2 10-5 17v6l-12 27-3 5-4 17v7l4 16 4 5 10 6h6l9-2 8-5 11-9 8-9 17-50 4-14 3-18V9L45-2v-25l-1-7-2-8-2-14-1-5-9-16-5-6-6-15-6-10-5-5-10-5-4-4-9-3-11-3-12-6-2-2M204 145v-5M204 140l2-7v-33l3-53V29l-2-19v-33l-4-24-3-9v-24l1-4 1-15 3-9v-33l-1-3-1-2-7 1h-5l-11-7-14-3-4-2h-2l-3 1-3 3-3 5-1 4-2 31-3 20 1 53-1 11-2 8v6l2 13 1 17v43l1 16v9l-5 17v9l2 11 3 11 5 5h10l7-1 9 3 26 2M204 140h1"/>
        <path d="M153-148l-2-3v2l-2 3-14 15-5 8-8 10-5 4-6 7-6 10-10 14-18 19-2 3-4 3v6l-2 6v10l2 12v12l-5 41v26l1 7v7l4-3 5-2 12-3 3-1 3-2 2-4 6-25 1-39-1-4v-8l3-8v-6l5-10 5-5 7-1 4-2 19-17 12-13 5-4 6-7M82 6l-3-1 3 1"/>
        <path d="M82 6h23l8-1h16l7 1h13l24-2h41l11 2 11 3 2 2 2 4 1 34 3 13-1 1-16 6-5 1h-15l-8 1-12 5-7 1h-6l-7-3-6-1-10 1-11 3h-9l-13-4h-8l-4 1-5 1-7-3H83l-5-2-3-3-2-1V53l-1-7V33M-363 275l-1 6 1 3 1 1 1-5-1-5M-393 313v-1 2l1 2 2 2h1v-2l-1-3-5-3M-367 345h-11l-16 2-14 1-1 1 2 1 6 2 17-3 25-1 18 1 20-1 11-3 2-2-1-1h-15l-9-1-31 3"/>
        <path d="M-348 343h-2l-4-1-3-3-3-1 1 5-11-1-1 3-1 2 9 1 6-1 4-1 3 2 4-1 2-1M147 114l-1-1-5 13 1 4 2 5 2 1h5l12-3"/>
      </g>
      <g id="f6" style="--index:6;opacity:0" class="frame">
        <path d="M-216-136v-2h1l4 3 9 6 6 14 2 12v26l2 11v13l-2 21v11l-2 6v8l2 11v14l1 6v28l2 7-3 20v33l2 11v16l-3 11-2 4-13 3-17 1h-15l-1-1-3-6-5-19v-9l-1-11-1-26 2-59-1-6V11l-1-7-1-13 1-29-1-3v-14l1-6v-12l2-9v-5l1-5 2-5 5-12 3-9 7-11 2-2h2"/>
        <path d="M-247-137h2l2 1 6 3 2 3 2 5v12l-3 12-3 4-4 7-5 6-2 2-3 3-6 4-10 11-7 8-8 8-5 6-2 2-2 3-7 7v1l-2 3-5 7-6 7-6 8v1l-18 21-9 2h-14l-3-1-5-4-3-2-1-3-2-2V3l2-6 3-5 9-10 1-3 10-7 6-8 2-2 7-8 6-5 8-9 5-8 32-32 5-7 6-6 4-5 4-3 9-11"/>
        <path d="M-254-128l1-3 3-3 3-1 7-4h2l4-1h2l6 2 7 1 4 2 1 4 2 2v3l-6 9-1 5-5 9-5 10M-324-16l-2 1-3 10V5l1 5 3 5 2 1 3 3 7 3h8l10-2h7l6-1h11l12 2h12l19-3 16-1 5-1h22l4 2 3 3 3 7 2 14v11l-2 7-3 5-11 5-4 1-6 3-7 1-7 5-14 6-11 2h-4l-2 1h-18l-7-2-17-2-5-1-19-3h-21l-9-2h-15l-6-1-7-3-5-9-3-7v-5l-1-4V20l5-14 14-15M-387 347l-27 2v3l4 1 6-2 10-1 6-3M-316 342l15-1 2 1-3 1-5 2-9-1M-405 308v1l2 1 3-1v-1l-1-1-3-1-3 1M-79-77l-3 1-13 8-15 17-13 23-7 16-1 5v6l-1 7 1 11 4 13 7 15 7 7 9 5 7 5 13 6 5 3 20 8 4 3 1 4-1 5-7 11-2 4-4 4-13 9-5 6-11 7-4 2h-3l-18-3-6-2-9-7-7-6-5-7-2-4-8-19-2-26-1-8-2-5-4-15-1-10-2-9-1-14v-11l-2-24v-8l1-7 5-15 2-18 3-11 9-18 7-11 4-5 9-6 13-10 9-5 14-4 14-1 17 5 5 4 6 10 2 6 2 5 1 10-2 15-9 9"/>
        <path d="M-84-152h-3l-4-2M-91-154"/>
        <path d="M-91-154l4-1 10-4h6l6-2 16-1 16 1 6 3 13 4 4 3 4 1 10 8 4 6 10 13 9 13 9 21 3 13 7 18 1 17 4 19 2 28-1 7 1 24-2 10-2 18-1 5-5 15-10 18-16 17-13 6-4 1-8 2-14 6h-5l-7-4-3-2-2-5-1-8 2-16 2-6 3-8 4-7 12-15 11-16 4-11 3-10V15l1-6-1-31-3-8-3-14-5-13-4-7-2-4-8-12-9-6-5-1-30 3-8-1-7-4-4-3-1-3-1-2"/>
        <path d="M-62-90l2-1 3-1 7 3 4 4 7 3 6 5 3 5 4 5 6 14 8 35 1 10 1 4 1 12-1 10v9l-2 5-1 8-2 7-5 10-8 13-2 3-14 11-4 5-2 7 1 7 3 6 1 2 8 2h12l7-2 8-5L4 91l8-15 4-10 7-28 4-24V-8l-1-14-4-19-2-7-10-16-7-16-3-6-8-8-14-14-19-8-11 1-7-1"/>
        <path d="M-18 70l-8 2-7 4-9 1-5 2h-5l-6-1-9 1h-5l-23 9-9 8-8 13v9l2 8 1 2 6 4 1 1 8 5 16 4 49-4 11-3 16-9 5-6 3-1 4-4 2-3M193-141l-7-2-6-4-4-3-4-4-8 1-16 11-8 6-10 7-30 27-23 19-5 3-2 2 1 24-1 4 1 12h5l2 2 3 2 12-7 6-5 17-9 19-13 48-33 2-2 3-4 2-8 1-6 2-6"/>
        <path d="M97-55v2l2 37 2 13 1 41 4 17-1 12-1 1-30 2h-4l-3-11V41l-2-8V8l1-15v-6l7-36-1-3v-11l2-3M192-144v2l1 21-1 11 2 6v13l2 45 3 19 1 22v42l1 21-1 20 2 22-1 24 1 12h-4l-13-1-12 1-4-1-9 1-3-1h-4l-3-2-2-3v-21l2-14-1-7 2-25-4-28 1-12V-3l2-16 1-16-1-13 2-7 1-7-2-34 1-11"/>
        <path d="M92 10h17l10-1 4 2 11-1 4 1 17-1 10 2h11l27-1 18-2 4-2 6 1 2 1v2l1 8 3 11v7l3 15-1 2v6l-3 3-11-1-19 1-9 1-9-1-18 3-11 2-7-2-10 1-6-2-7 2h-7l-7 1h-6l-10-1-11 1-2-1"/>
      </g>
      <g id="f7" style="--index:7;opacity:0" class="frame">
        <path d="M-373 4l-1 5 4 25-1 32 4 10v13l1 4h2l6 6 9 4 13 3 24 1h29l7-2h11l15-3 20-6 13-1 8-2 6-4 12-17 5-8 4-10 1-10 4-13V19l-1-3V8l-1-3-4-2h-4l-4 2h-2l-11 7-7 7-9 5-10 2-22 7-14 2h-13l-3 1-20 1-4-1-9-5-4-3-3-3-6-3-6-5-5-2-4-4-17-7h-6"/>
        <path d="M-229-112l-1 11-1 19v21l-7 33-4 13-2 22-1 23-1 5v10l-1 6-2 7-1 15v17l-1 4-1 14v31l2 9 5 3 5 4 3 1h14l21-3 4-2 2-3 2-4v-9l3-19 1-39-2-30-3-20-1-9V7l-2-11-1-8-3-18-2-9v-12l-1-4-1-19-4-13v-7l-4-13-4-7-3-3h-3M-372 10V7l9-17 10-16 10-11 9-12 8-8 12-15 7-6 13-14 24-24 2-3 10-9h2l4-5h2l3-3h7l1 1 2 4v4l-12 18-4 9-23 34-8 10-3 2-5 8-7 8-3 6-4 5-8 13-7 16-3 9-3 13v11l-1 8-1 2-7 2M-420 351h1l3 1 3-1 2-1-3-1h-6M-301 343l1 1h3l2-2-1-1-2-1-3 3M-87-169l-17 1-14 6-21 16-11 12-16 24-13 30-4 11v3l-2 8-2 16-1 15 1 14 3 11 4 3 4 5 4 10v8l-3 15 1 10 2 11 4 10 5 24 3 10 4 8 12 22 8 8 16 9 26 4h11l17-1 10-2 7-2 8-9 3-7v-4l1-7-1-11-3-8-5-7-3-3-10-4-15-8-12-3-15-6-11-7-10-10-8-14-7-18-3-6-2-15V-7l3-16 13-24 8-12 21-20 17-12 9-4 5-2 4-3 4-6 4-14 1-13-1-10 2-9-4-8-5-5-5-2"/>
        <path d="M-89-168l6-1h35l7-2 13-1 5 1 4 1 5 1 8 4 11 3 7 3 12 9 3 5 12 11 11 22 3 8 5 9 5 15 2 15 2 11v7l2 4v7l2 9V3l2 11-1 12-2 6-1 9-3 11-1 9-6 21-5 9-17 27-13 13-5 4-10 5-6 1-16 5-5 1-13 3-9 1h-4l-12-5-3-2-2-4-2-4v-10l1-10 5-8 7-9 7-6 2-1 7-1 10-4 5-3 8-6 7-7 7-9 5-17 1-6 2-13 1-48-5-21-6-15-4-6-2-6-6-7-3-3-7-4-19-10-9-2-12 1-5-1h-11l-2-1-5-4v-6l5-7"/>
        <path d="M-42-100v-2l1-1h3l9 6 2 2 3 7 4 4 5 7 4 4 6 13 3 11 1 7 3 8 3 16-1 31-1 17-2 10-10 21-7 11-6 6-7 5-8 3-26 5-3 1-3 2-4 6-1 5v4l2 3 3 3 9 5 7 2 10-1 17-3 7-2 8-4 10-6 11-8 12-16 14-34 2-13 6-20 1-7V-5l-3-20-7-19-4-16-4-11-7-14-4-7-17-14-9-5-4-5M230 25h-3l-4-1-6 1-18-3-12 1-13-2h-12l-11-2-12-1-5-2-8-5-10-14-3-8-3-23-1-19 1-14-1-11-3-4-5-4-2-1H86l-5 4-2 3-2 9-1 12-3 11 1 10-2 11 2 16v7l1 10 6 25 6 14 5 11 2 3 4 2 13 4 26-1 53-9 14-7 9-2 7-4 3-2 1-2 4-2v-5l2-2"/>
        <path d="M78-47l-2 3-1-1-1-13 2-14 6-27 5-8 8-6h4l8 3 9 7 1 2 1 5-3 18-5 17-2 11-4 18M89-108l-1 1M88-107"/>
        <path d="M88-107l6-6 6-3 15-7 15-8 10-4 29-14 10-1 1 1 7 14-1 5-3 4-13 10-14 6-9 6-9 2-21 11-6 4-10 10-3 1-5 3M93-73h1"/>
        <path d="M158-135l-1 2-1 3-1 19 3 29-1 14 1 9-3 21v12l-3 14 1 14-2 19v10l-1 17-2 11-2 33-6 41 1 6 2 2 8-1 11-4 21-3 17-2 4-2v-4l-2-18 1-9-1-26-2-25 1-10-2-13 1-12-4-34v-6l-4-31-1-20-1-9 1-8-3-11 1-10v-5l-2-6v-7l-1-2-1-4 1-3 1-1"/>
      </g>
      <g id="f8" style="--index:8;opacity:0" class="frame">
        <path d="M-268-109l-3 2-8 7-11 7-27 25-19 28-14 27-6 15-9 38-2 15v11l5 20 2 5 2 8 3 6 5 6 10 21 4 5 2 4 3 3 4 5 7 5 8 3 11 1 5-1 21-7 16-3 5-3 4-4 12-5 6-7 7-4 3-5 7-5 6-9 5-8 4-11 3-4 6-18 3-16V31l-3-4h-3l-8 4-5 5-5 5-3 2-7 8-7 5-10 12-5 4-22 14-6 1h-6l-17-7-21-16-3-3-4-10-3-13-3-7V2l3-13 7-15 4-8 7-10 8-15 4-5 14-12 4-6 4-6 4-4 3-12v-2"/>
        <path d="M-223-75l-2 7-3 17-4 31-1 24-4 24-6 30-2 30-2 10-1 11v20l-3 11v7l2 4 4 4 6 4h7l12-2 11-5 11-7 1-2v-14l-4-15-3-18-2-27-1-56-1-7-2-10-1-8-1-6v-38l-1-5-1-10-4-4h-2M-101-169l-16 8-6 6-4 6-2 3h3l9-6 20-8h23l4 2-8 4-9 2-7 3-10 7-4 1-5 4-1 3h3l14-5 8-2h6l3 2v1l-6 6-11 5-6 4-16 16-3 4v4l-1 3 11-9 6-2-1 3-4 6-9 7-9 10-14 19-6 6-2 1-3 1-1-4v-7l4-7 2-8v-1h-2l-4 2-3 5-6 12-7 10-2 1h-2l-1-2-1-5 6-15 1-10 2-8v-4l-2 1-3 5-6 11-3 6-2 6-3 11-2 24v18l3 8 1 9 1 3 2 2 4 1 1 1 2 2 2 5 2 1 4 9 3 2 2 1h3l3-3 12-39 7-18 7-13 17-26 10-11 24-23 18-8 12-4 7-1 5-2 11-9 5-7 4-12v-8l-5-8-3-3-8-4h-4l-8-2h-3"/>
        <path d="M-49-170l1 1 2 1 13 1 3-1h4l5-3 6-3 8 2 4 5 2 6 1 14 1 3 2 1h2l2-1 2-3 10-8 10-5 3 1 4 4 2 7 3 12v22l11 16 11 12-2 15 2 8 2 7v17l2 12 1 25 1 5v33l-7 37-4 11-11 21-8 11-13 10-7 5-19 9-14 4h-18l-4 2h-2l-3-4-5-12-4-14-1-6v-9l3-6h4l4-3 10-3 5-3 5-2 8-7 5-2 8-9 9-12 4-16 5-30v-33l-1-9-3-16-7-17-7-11-6-7-4-2-2-2-4-2-2-3-28-8-6-1-17 1-9 2-9 1-2-3v-2l2-2 4-2"/>
        <path d="M-183-8l-1 1 1 4-6 10-2 9 2 3 2 1 14-5 2 1v1l-2 16-6 18v4l1 3 3 1 12-7h4l2 1 1 4v7l-6 12-4 8-2 6v9l3 7 3 3 3 1 8-1 3 3 2 3 3 15 3 7 3 5 3 2 6 1 6 2 19 6 21 2 7 1 21-2 17-6 13-2 11-7 3-5 1-9-1-6-1-4-2-2-4-1-2-3-11-4-9-3-12-6-16-5-13-2-10-3-8-4-18-15-10-12-15-26-5-7-2-5v-7l-2-7v-17l-2-9M-55-82l-1 1v-1h1M-144-163l-3-25v-6l1-1h2l1 4v7l-1 13M-187-121l-14-6h-8l-4-1v4l13 3 2 2 9 1M-179-165h-2l-8-8-8-5-1 3 3 3 14 12M144 142l-1-3 8-74 8-53 4-50 6-29 1-16 1-7 1-7 2-9v-14l3-8 5-10 14-8 8-2 4-1 9 1h5l9 6 1 2v4l-2 12-12 30-6 16-3 17-3 23v6l-2 10-2 33-2 14 4 42 3 12 1 8 3 6 1 11 4 12 1 6-1 2-4 1-9 4-15 1-4 2"/>
        <path d="M210-146l-12 2-6 3-7 2-17 1-18 7-16 8-14 9-12 12-10 12-10 20-7 23-1 11 3 22 5 13 10 15 13 14 16 9 18 6h4l6 1h3l2-1v-2l-14-6-21-16-3-2-8-12-7-15v-4l-1-10 1-17 5-14 8-13 8-9 15-13 10-5 11-3 8-4 13-2 6-4 7-2 4-3"/>
        <path d="M124-106v-3l5-5 13-12 18-11 7-2 5-3 6-1 8-1 6-3 11-2h7l5-3 11-2 1 2 3 1 2 1 1 7-1 6-2 6-5 15-6 10-4 13M204 91l1 2 3 2 4 2 7 1 3 3 1 8-1 4-4 6-2 2-1 2-4 1"/>
      </g>
      <g id="f9" style="--index:9;opacity:0" class="frame">
        <path d="M-357-10l-1 3-1 7-1 37-2 11-6 24-6 13-7 11-5 4-6 6-7 5-15 16-1 6 5 9 8 4 7 5 15 7 9 2 24 3 39-1 19-6h6l5 1h32l4-1h16l10-2h11l8-2 25-4 5-2 7-5 4-5 3-13v-12l-2-3-3-1-8-7-9-4-16-8-10-25-10-32-3-4-4-4h-3l-2 2-6 26-7 21-6 11-6 6-6 2h-9l-16-5h-10l-13-3h-12l-3-1-3-3-5-11-3-23v-9l-2-16-2-8-5-8-1-9-2-4-3-4v-1h-4l-1 1-5 1M-132 51v3M-132 54v-3l-3-5-9-15-4-13-2-4h-2l-2-2h-1l-1 2-3 11v11l-4-3-5-6-3-5-2-23-2-5h-4l-6 8v7l5 15 1 12 4 14 2 4-3 1-7-3-2 1 6 17 4 5 3 2 6 13 3 2 2 5 7 10 9 16 15 18 4 2 5 4 7 4 2 1 25 4h24l12-1 4-2 5-1 5-3 10-3 7-5 1-3 2-5-3-14-4-10-5-3-26-6-7-2-8-2h-6l-4-1h-5l-6-1-20-10-2-2-3-4M22-41l-1-6-3-7-7-14-4-4-3-6-6-6-5-3-5-5-15-11-4-5h1l4 1 10 1 2 3 5 2 2 3h8l4 2h3l3-3v-2l-8-10-27-21-7-6-1-3 1-1h8l5 3 7 2 11 11 6 3 4-1 2-2v-4l-7-6-2-5v-5l1-3 4-3 5-2 2-1 1 2 2 6v9l2 2 3-1 5-6 3-2h2l2 1 4 1v4l-4 7-5 13-1 12 5 2 8-6 3 6 5 6 2 1 1 2 2 2v9l2 6 5 8 1 9 1 22 2 8-1 13 2 60-2 17-3 9-2 3h-2L46 57l-2-10"/>
        <path d="M64 47l-1 2 1 10-2 14-1 9-2 6-1 6-7 14-4 6-4 3-4 5-14 6-9 5-5 4-8 3-4 3-7 2h-5l-5 2h-7l-3-1h-6l-9-4-9-9-4-7-1-1v-7l2-3 5-7 4-4 8-3 4-3 5-1 2-3 3-2h4l5-4 4-2 4-5 5-2 9-9 6-11 7-17 1-7 1-4 2-18 2-5 1-10v-18l-1-21 3-10 4-5M-44-84h-2M-75-104l-2-1-11 5-13 10-4 3-24 25-10 14-7 14-5 15v4l2 3 6-16 8-17 4-7 4-5 4-5 3-3 4-7 15-12 9-5 3-4 3-2h3l8-5 6-1 2-1 8-1h1l1-2-8-1M-145-190l-3-21v-4l-1-8-1-6 2-12 3-2 1 3-1 7 1 5 1 16-2 26M-203-187l-9-8-5-7-9-7-4-5-3-3-2-4-4-4-7-4-1-1v1l3 7 4 4 10 9 5 4 4 5 5 2 3 5 5 3 2 3 3 3M-215-127h-3l-17-6-21-3-3 1-8-2v2l1 1 2 1 5 1 2 1h9l4 2h8l1 2 9 2M-91-158v-1l8-21 5-14 8-19 5-5v5l-3 8-14 32-4 6M-202-74l-2-1-48 15-10 5-2 3 3 1 9-5 9-4 12-4"/>
        <path d="M60-58l-2 1v2l1 2-1 13 4 5 2 2 4 1 3 2 2 11-1 18-3 9-1 9 7 11 3 4 2 5-2 21-7 26-1 17 6 15 8 11 3 9 1 5-2 21-7 17-4 5-5 4-6 4-19 6-7-1-6-2-3-3-7-8-9-5-6-2H0l-10 1-6 1-10 5-19 6-7 1-5-1-9-5-8-13-11-12-17-4-10-3-4-6-5-2-3-4-2-3-3-9v-2l5-5 4-2 2 1 12 8 5 2 17 5 12 2 18-3 20-2 6-1 19-10 10-6 11-17 4-16 7-13 1-5 2-4M-76-105l-17 3h-3l-2-2 1-2 1-2 4-3 2-1 16-1 3-1v-1l-1-1-14-6v-1l6-4h3l9 4 7 1h1l1 3-2 6v4l-9 2v1l4 1M-51-164h-4l-18 5-5 4-2 1 1 3 1 2 5 3 13 2 2 1 2 2 1 4-2 2v1h5l4-3 2-4v-8l-1-1-6-2-2-1v-2l7-3v-1l-1-1M-185-50l-1-4-2 2-3 13v9l2 4 2 2 1 1h2l6-15 3-4v5l-1 13v5h2l3-2 4-5 3-6v-3l-1-11-1-1-3-9-2-3h-1l-3 5-2 2-1-2v-11l-2 1-2 1M-68-13h-3l-3 4v2l2 2h3l2-2 2-4-2-3h-2M152 128v-1l1-11 4-25 8-51 8-32 6-28 8-31 7-23 4-14 5-14 4-8 2-6 6-13 3-5 10-8 12-7 7-1 3 2 4-1 7 3 5 3 5 7 1 11-2 7-3 4-9 12-3 6-11 15-11 20-3 9-9 18-9 25-4 21-5 31v17l2 14 1 13 3 15 5 11 6 8v3l-1 1-4 1-10 2-9 2-9 1-9 1h-6l-18 2"/>
        <path d="M112-74l1-4 3-5 9-11 14-14 19-15 14-7 18-8 16-3 13-4 14-1 7 1 10-1 11 2 12 7 12 5 8 5 14 15 12 17 2 6 13 40 1 6v7l-2 4-7 9-3 2-8 1-4-1-12-11-4-9-4-5-8-15-3-9-5-8-6-9-8-12-2-5-9-8-9-4-21-5-15 1h-4l-9 1-27 8-6 4-5 3-14 9M197 93v3l5 2 5 1 11-1 8-3 8-1 4 3v5l-7 11-9 5-4 5-4 1-3 2"/>
        <path d="M211 117l-3 2v1l3-1 11-4 9-2 4 2 2 3v7l-2 4-6 5-23 2-4-1-7 1-16-2-7-4-11-2-1-1"/>
      </g>
      <g id="f10" style="--index:10;opacity:0" class="frame">
        <path d="M-347 19l-2 6-1 12-3 9-5 10-9 12-6 4-9 5-3 2-3 2-8 2-1 1-10 4-11 5-8 5-6 6-6 8-2 5 1 14 3 5 16 6 15 4 14 6 22 4h37l10-2 30-1 6 1 58 1 7 1 50 1 14-5 14-6 5-4 6-2 5-3 3-7 1-9-2-4-3-3-3-1-11-8-8-5-21-5-9-4-8-5-5-7-3-2-8-4-8-5h-4l-8 4-13 5-7 5-7 4-15 5-7 1h-8l-12-4-13-9-9-9-2-4-1-3-10-13-4-14-1-2-3-7-2-2-5-2"/>
        <path d="M-273 151l-4-1-6 2-6 3-5 1-9 4-3 1-4 2-10 1-1 1-13 4-6 4-8 3-5 1h-6l-9-2-3-2-11-11-4-4-10-11h-2l-3-3-3-2-1-1-7-1M-34-170l-3-6-3-4-2-1h-5l-3 2-1 1 1 4 6 8-6 1-2 1-1 1v2l3 6 2 1 4-1 4-5 3-5M-99-138l-1-1-2-1-7 2-6 5-2 3h3l6-2 5-1v1l1 1 5-1 2-3v-1h-2v-3M-194-67v-3l-1 1-3 6-1 5v4l1 1h2l4-5 2-6 2-1 3-3 2-6-5 1-2-2M-199-36l-1-2-1 1-4 12v1h1l2-3 1 1h1l1-4M-171-63l-3 3-1 5-1 7v2l1 1 4-1 3-2 3-4v-3l-3-4v-1l1-2M-72-161l-2-1h-4l-4 3-2 3h11l1-1 2-3v-1h-2M-46-138h-3v3l1 2 4 1 4 1 1-1-2-7-3-2M-74-126l-6-4 1 3 3 4 3 1 4 1 3-1 1-4-1-1-6-4-2-1h2l-2-1-3-3M-91-107l-2-1h-1l-5 3-8 9M-107-96l2 2 4-1 5-2 3-3 2-5M-218 7l-1 1 1 7 4 7 1 1 3-6 4 3h1v-6l-5-5-1-4h-2M77 189l2 3 9 10 19 21 6 8 14 16 3 2 7 10h2l-5-8-12-16-23-47-22-48-6-13-3-14-3-16-1-17"/>
        <path d="M136 258l-26-21-5-2-15-11-11-10-16-13-1-2-12-7-8-6-10-6-11-5-9-1-2-1-5-2-14-2-18-1-29-6-20-6-7-4-3-3-1-2 3-7 3-4 13-5 11-2 7-1 21 3h14l12 2h8l25 3 13 6 5 3 14 16 13 18"/>
        <path d="M51 183l1 3 7 6 18 13 13 12 10 7 6 8 10 8 10 10 3 6 11 10 12 15 5 5 2 3 11 7 4 1h1l-1-2-2-3-24-21-6-8-18-24-4-4-12-14-7-12-7-8-2-5-10-11-2-3"/>
        <path d="M89 180l2 6 14 16 8 12 12 15 7 11 25 28 12 16 2 2 4 9-2 1-24-18-34-38-17-19-18-23-18-21-4-5-2-6"/>
        <path d="M88 175l-2-2-7-15-9-25-3-20 1-7-1-8-1-27-4-36-1-11-1-4v-8L58-1l-2-3-1-1h-2v2l-1 8 2 17-4 9-1 1-3-1-2-2-2-6-1-9-1-31-4-23-4-13-4-5-2-6-3-2-3-5-4-3-1 1 10 40 1 15 1 8 1 15-1 13-6 29-1 4-4 10-3 3-5 10-7 7-5 2-11 9-7 5-5 5-2 3 1 5 7 17 5 4 26 12 19 7 6 5 7 10 14 7 18 16 4 2h4"/>
        <path d="M-15 96v3l-7 2-13 6h-10l-8-1-23-2-16-7-6-4-4-1-6-5-5-2h-4l-1 1 1 4 4 4 13 10 9 5 11 11 1 3-1 2-6 2-7-2-17-10-7-2-1-1-2-1-1 1v1l2 6 5 6 3 10 2 1-1 1 1 2 17 12 9 1 2 1 23 4h5l13 2h8l6 2 7 3h4l14-2M58 57l-1-3h1l2 1 3 2 3 5 3 8 1 7 5 35 10 43 8 22 1 7v8l-3 1-14-9-5-5-9-11-20-36-11-27M0-126l-6-2-5-2 10 12 5 3 3 3 3 1 2-1 1-2-4-2-5-7M27-126l-1-1-2 13v5l2 7 1 2 5 2 3 4 3 2 1-2-1-5v-4h1l4 5h2l1-4-3-4-4-3-5 2h-3l-1-1v-17M41-81l-1 2 7 12v17l1 5 3 5h1l2-6 1-3-1-4-3-10-1-9-5-10M-166 54l-1 1M-167 55v3l6 12 6 7 3 5 3 3 2 4 3 1v-5l-3-8-4-5-7-7-3-6-6-4M-167 55l-1-2M-181-1l-1 2 3 18 5 12h2l1-5-1-6-5-4v-3l-1-7-3-4M-152 28h-1v4l6 20 4 4h2l1-4-2-6-3-6v-6l-4-3-3-6M-149-277l-1 4 1 8 1 5 2 2 2-11-1-7-2-2M-259-242l7 11 5 2v-3l-2-6-9-8M-277-140l-9-2-3 1h-2l-1 2v2l1 1 7 1h8l2-3-1-1M-271-51l-10 5-4 5v1l6 2 3-3 6-7M-57-239l-2 1-3 10-1 4 1 1 8-12v-4M-74-23l-3-1-4 2-7 10v7l1 4 4 7 3 2 7 1h4l6-2 6-3 5-5 2-3v-11l-1-3-4-6-11-4h-4l-3 1M196 114l-2 1 11 8 12 11 5 5 6 5v1l-9 6-4 1-3 1-15-2-3-2-2-2-12-6-9-2-4-4-5-1-5-4v-6l4-4 8-2 12-6 2-1 1 1"/>
        <path d="M158 128l-2-2V99l4-34 10-40 13-39 14-31 29-52 4-9 15-21 9-8h5l2 1 2 2 1 3v3l-3 9-7 10-5 9-8 23-1 7-6 19-4 20-3 9-5 19-4 12-3 18-4 13-8 39-5 14-2 23v12"/>
        <path d="M262-129l-3-3-7-3h-7l-5-1-5 1-8-2-6 1-6-1-8 2-1 2-8 34-2 7-3 13-3 7-2 9-6 18-10 52-2 15-1 32 2 14-1 4-3 19"/>
        <path d="M277-127l26 27 13 17 6 10 4 14 7 16 2 7 4 21v6l-2 6-5 17-4 7-17 18-20 17-21 10-17 5-17 2-8-2-21-8-13-6-6-4-4-3-2-5-2-9 5-9 4-4 10-5 24 1 14 1h15l17-2 4-1 6-3 10-7 5-8 5-10 2-5 3-20-1-24-3-10-3-6"/>
      </g>
      <g id="f11" style="--index:11;opacity:0" class="frame">
        <path d="M-345 67l-12 12-5 2-12 2-8 4h-4l-7 2h-6l-16 2-9 4-5 3-8 9-3 11v7l11 13 5 4 3 2 10 3 4 2h10l8 2h10l9 1 30-1 9-2 16-1 27-1 13 2h15l24 4h26l14 2h25l15-5h10l10-5 7-14 2-6v-3l-3-5-1-7-5-3-4-5-3-2-4-1-14 1-8-2-13-1-16-5h-12l-9-2h-12l-24 6-19 3h-12l-12-6-4-3-1-3-4-5-5-2-9-8-7-4h-15"/>
        <path d="M-275 145l-3 1-1 1-7 4-8 2-4 3-11 3-7 2-13 8-7 3-5 5v1h-1v1l-7 10v2l-3 3-8 1-3-2-1-2-8-13-2-8-4-7-6-7-5-4-4-2-5-3-14-5M-115-138l-2 1-9-2-9-3-4-4-5-3-2-3-3-1v4l3 6 2 5 2 3 8 3 6-1 7-2M-82-160l-3 1-3 1-8 5-7 3-4 1-8-2-3 2v3l2 1 8 3 7-4 12-8 5-2M-79-129l-3 1h-9l-7 2-16-2h-2v4l2 2 4 1 10 1 17-3 3-5M-183-83v-1l7-9 4-15 2-12h1l2 3 1 6v7l-3 9-6 8-3 3M-168-65v-1l5-17 4-25 1-2h1l1 5-4 28-1 7-5 10M-200-39v-6l1-13 2-4 2-4 2 1 1 4-5 21M-181-3l-1-1v-8l1-15 2-11 3-8h2v4l-4 32v5M-151 15l-2-1-1-8-1-17 1-10h1l1 2 2 10v20M-215-2l1-13 2-5 1 6-2 12 1 2M-149-291l-1 3 2 5h2l1-1v-3l-4-6M-268-257v2l1 3 6 3v-2l-1-4-2-3h-2M-306-140h-2l-1 1v1l4 2h5l3-1v-2l-1-2-2-1h-4M-289-42l-2 1-1 1-2 7 1 1h3l2-1 3-5-3-1M-48-250v-3h-1l-2 3-1 4 1 1h3l2-2 1-4-1-2-1-1M154 270l4 4M158 274l1 4 7 9 11 10 7 12 8 7 1 2 6 9 3 3 3 6 6 5 6 11 8 10 7 10h1l5 6 3 6v1l3 4h1l2 4 2 1 1 2 4 4v1h1l2 4h1v1l2 2 2 4 4 3 1 2 2 1v1h3v-2l-1-2-2-4-4-8h-2l-2-4-3-1-2-4h-1l-2-3-2-1-2-4-1-1-3-3-1-4-2-2v-2l-3-3-2-5-3-2-6-6-11-14-6-6-6-8-5-9-2-4-5-7-2-2-4-5-5-3-5-7-4-3v-1l-3-2-3-3-3-2-2-3-4-5"/>
        <path d="M158 274l-5-3v2h1v1l3 5 15 18 10 11 4 6 2 2 1 2h1l4 3 15 17 5 9 7 8h1v1l2 1 3 5-2-6-4-6-1-4-2-1v-3l-7-9-1-1-4-5-13-13-5-8-6-4-11-14M271 417l3-2 5-8 15-16h5v3l-2 3-11 11-9 6-4 3-2 2-1 1v-1"/>
        <path d="M262 409l3 3v2l-6 3-5-1-4 3v1l14 1h7l16 1h4v-2l-2-1-5-1h-5l-11-3"/>
        <path d="M284 405l-8 7h-11l-1 1-1 3 1 2 5 1h5l7-5 5-7 2-3M-80-36h-3l-10 6-8 9-2 5-2 10 1 11 3 8 5 4 3 2 15 5 11 1 9-4 7-5 7-6 4-10 1-11-3-12-3-4-6-5-4-2-6-2-6-1h-5M184 115l-2-1M182 114l2 6 3 8 13 29-2 4-26 3h-8l-4-6-5-1v-3l1-4 1-32 2-6v-2 1"/>
        <path d="M184 125v3h1l-1-7v-15l4-29 5-34 11-43 5-15 4-32 2-5v-5l9-26 6-24 1-14-1-9-6-12-2-1-9-1-9 1-4 4-2 16-2 5-1 7v21l-5 15-1 6-3 15-19 49-6 22-4 21v11l-2 18 1 9v9l5 37"/>
        <path d="M216-140l-5-1 1-1 3-1 7 1 9 3 3 2 7 1 3 5 1 8-2 6-4 14-6 12-3 13-4 8-3 16-7 23-7 24-8 24-8 28-5 17-7 28"/>
        <path d="M214-141l-3 1-4-1-5-1-9 1-2 2-3 25v33l-2 29-2 16-4 14-6 39-4 18-2 4"/>
        <path d="M319-37l2 15-2 14-2 6-8 16-11 14-11 8-6 3-15 4-16 2h-9l-13-3-7-2-9-3-8-2-5-4-11-3-8-7-9-10-4-10v-7l8-12 5-4 4-1 13 4 22 15 20 10h5l13 4h6l10-2 11-4 10-7 3-1 10-10 3-2 1-1"/>
        <path d="M318-30l1 1 2 4 2 11 1 9 3 10 12 12 8 6 3 1 3 5v3l-1 2-7 6-5 2-2 2h-7l-5-4-5-9-5-7-7-4-10-2 2-7"/>
        <path d="M332 32l-2 1-5 5-4 3-9 6-2 5v2l5 2h3l11-5 9-1 11-14-1-5M341 21l-2-1-7-11-6-21-4-19-2-11-4-9-2 5-2 9-1 23 2 12 1 4 4 9 6 6"/>
        <path d="M290 8l2-4 8-9 5-11 5-19 2-20 4 6 2 5 1 5-1 19-2 15-5 12-3 3M339 43l-2 3-2 1-8 1-5 3-7 1h-1l-2-2v-9l3-8-1-10-2-3-1-6 1-1 2-1 2 1 7 6 12 9"/>
        <path d="M299 18l4 3 4 3 5 8 1 5-1 7-5 17 1 8 10-1 9-2 5-1 5-4 3-4 3-2 4-7 3-11v-2l-2-5-4-2h-3"/>
        <path d="M320 31l-1 1-5-6-5-2-8-5-2-4 2-2 6-1 11 1 4 2"/>
        <path d="M314 10l-4 10-8 11-12 11-15 10-15 5-7 1h-3l-22 1h-10l-5-2-5-1-10-3-5-3-7-10-3-11 1-7 3-7 6-5h3l33 8h9"/>
      </g>
    </g>
    <g id="t1" class="thread" transform="translate(172 41)">
      <g id="f0" style="--index:0;opacity:1" class="frame">
        <path d="M-187-367v2l4 8 4 3 5 2M-186-352l-23-2-5-2-4-7M-224-357l-1 2 1 1 3 7 3-1 11 1 5 1M-230-351l-1 2 6 10 7-1 11 1"/>
        <path d="M-197-351l-8 8-1 3M-205-338h3l7 2 19 1 3 6 1 2"/>
        <path d="M-162-334l-7 8-8 4h-2l-2-3v-2l2-3"/>
        <path d="M-162-335v3l1 8 1 28-1 19-3 19M-181-328l-3 28-2 52M-161-258l6-9 9-11 12-11 10-7 12-4 8-1 15-1 30 2 23 8 11 6"/>
        <path d="M-27-286l9 5 10 6 3 3 8 5 2 4 4 4 2 5 4 4 5 11M24-238l-1-2 5-10 3-10 13-49 5-11 9-9M58-330l1-2 17-8 3-5v-2l3-2M76-336l-2-1M74-337l5-1h14l9-1 6-6 2-2M92-332h11l4-1 3-2 4-6M97-321l18-3 2-1 3-5M89-334l-1-2 1 2M89-334l4 4 2 6M97-320l-5-1-10 1-12-1-8 6-2 3-1 3M70-316l-1-1 1 1"/>
        <path d="M70-316l2 4v3l-2 2h-3l-10-3-6-2v-6l-1-2"/>
        <path d="M72-311l-4 17-5 14v5l-8 20-1 6-3 7-3 13-7 14-3 3-6 3-14 1-6-3-5-5M82-349h4l-2 10M110-347l1 1 6 7 3 9M-216-363h-2l-9 7-6 6-1 2 1 1M-186-366v-1l-4-1-2 1-2 2v5l3 6"/>
        <path d="M9-214l-9-9-9-14-6-16-2-2M-184-249h-3l1 2v7l2 7 3 4 3 1 21 1 7-3 8-7 6-6 14-13 11-13M-175-352l5 3 3 3 3 5 2 6M-417 232l18-2h7l4 1h13l4-1v1h1l-2-5-3-3-8-12-5-3-8-3-14-1-6 8-4 9-1 5v15l1 1 1 14 4 5 21 1 9-2h4l1-1M-351 211l-3 2v6l3 38 1 4h2l1-1"/>
        <path d="M-353 227v-4l15-13 6-2h1l1 1h11l5 3 3 4 1 5 1 3M-288 210l-3 7v4l4 23v22l1-1M-284 232v-6l2-4 9-14 2-1h4v-1l10-2h11l4 3M-218 215l-5-1-1 1-5 17-3 18v8l7 4h5l4 1 4-2 5-3 5-6 4-7 1-4 1-12-4-12-5-8-5-4-6-1h-5M-183 213l-1 8 3 15 2 25 2 1 2-3"/>
        <path d="M-179 229l-2-4 17-18 4-1 2-2h6l3 2"/>
      </g>
      <g id="f1" style="--index:1;opacity:0" class="frame">
        <path d="M-102-338l4 11 3 6 7 8 8 6 9 3h6l12-2 16-8 18-12 14-3 8 1 6 3 5 11 5 6v1"/>
        <path d="M-101-335v-2l-2-3-5-1-8-1-5 1-10 10-14 20"/>
        <path d="M-142-313l-2 2-6 14-4 22M18-308l2 3 5 13 3 21"/>
        <path d="M-152-264l-1-3v-11l-4-33-3-18-2-6-1-6-1-2M23-250l-1-1v-3l4-12 10-22 8-18 5-11 10-12M-186-366l-1-1v1l6 10 3 3 4 2M-184-351l-8-2-7 1-1-1M-198-351h-1l-8 12M-204-338h-1M-205-338h3l11 2h13l3 1M-199-352l-3-1h-7M-203-347l-11-1M-207-341l-9 1-3-1M-231-352v1l7 10M-224-356l5 10M-218-363v1l4 7M66-335l9-3 3-3 3-6M80-337h25M91-336l3 5 4 8M95-331h12M99-324h13M105-338h-1l7-8M108-332v-2l9-5M113-326l1-1 5-4M74-323l21 1M-175-335l3 1 2 6"/>
        <path d="M-178-330l-1 4 1 1 3 1 4-1h2l3-4 3-6M74-322l-4-1-3 1-7 5-1 2v2"/>
        <path d="M68-316l1 1v2l-2 2h-6l-8-2-2-6M-181-325l4 18 7 45 3 9 4 9 3 5 3 3 5 1 4-1 6-8 2-7 2-20 6-17 4-8 2-3"/>
        <path d="M70-314h-1l-10 31-3 8-3 9-3 7-7 26-5 7-3 3-6-1-7-4-3-5-3-7-3-21v-6l-1-4v-4l-3-8-3-6-4-10-3-4h-5M-127-297l3-5 5-4"/>
        <path d="M-120-305l3-2 3 1 1 1 2 4M-217-364l-5 4-6 6-4 5-1 3M-186-365l-2-1-3-1-2 3v3l4 9M81-347l1-2 2-2 1 1-1 11M112-347l4 7 4 11M58-327l4-6 5-3M-3-304h-2l-3 1-4 4-4 6-1 8-2 7-1 6 2 8v7M-111-304l3 7 2 9-1 9-1 3-1 6M-176-352l7 3 5 6M-421 233l-1 1M-422 234h-1l8 1 12-2h15l2-1 8-2v-4l-3-9-5-7-8-5h-8l-10 5-5 7-4 10-1 7"/>
        <path d="M-422 234v3l4 16 3 3 3 2 3 1h10l6-1 7 1M-357 207l-1 2 4 21 1 10 2 9v6l1-2"/>
        <path d="M-356 228l9-15 4-4 8-3 10 1 6 3 3 7 2 5M-291 205l-1-1v6l4 22 1 22 2 5"/>
        <path d="M-288 232l-2 1v-2l4-10 5-7 10-10 4-1h5l6 1 4 3M-220 205l-4-1-1 1-6 6-6 9-1 5v18l6 12 4 4 4 1h6l7-1 5-3 4-7 2-5v-13l-3-12-3-6-4-3-2-4-6-2M-187 204l-2 1 5 19 2 22 4 11"/>
        <path d="M-182 230l-1-2 3-7 8-12 6-5 9-2 8 5 1 2M-552-201v2l1 3M-552-213l-2-2 1-6v-2h4l3-2 1-4-8-6-5 1v-1M-478-297v2M-477-308l-2-2 1-4 1-2 6-2 1-2 2-2-2-4-3-2-7-1v-1"/>
      </g>
    </g>
    <g id="t2" class="thread" transform="translate(172 41)">
      <g id="f0" style="--index:0;opacity:1" class="frame">
        <path d="M-663 28l-1-4v-8l6-12 6-6 4-5 3-8-1-6-5-4-1-2-3-1-4-4-3-6-1-6v-7l8-8 2-4-1-9-1-3-2-3M-555 26l-3-3v-3l7-11 6-8 5-9v-6l-5-5-10-6-3-4-2-5v-7l1-3 4-4 3-3 2-4v-7l-3-7v-4M-479-36l-3-3v-13l4-9 11-11 2-4-1-4-6-3-4-2-3-6-1-9 5-7M-416 35l-3-2-1-3-4-14v-5l6-9 4-3 3-5h1l3-4 4-9-2-3-4-2-1-3h-2l-6-11-2-8v-4l2-6M-497 82l-4-2-2-4-3-8v-4l1-2 1-1 8-9v-6l-7-11M-602 80l-3-2-2-2-1-3V62l2-4 7-5 3-3v-2l-3-2-3-7M42 102l11 1 17 7"/>
        <path d="M70 101h-4l-4 2-12 8-6 4h-1 1M89 88v-2l24-9M95 104l21-2 5 1M16 92L6 86l-13-5-1-1h1M19 116h-6l-14 5-9 2M5 413l13-1h14v-1h8v-1h3M-70-345l-2-1M-72-346h-2l-6 5-6 6-2 4 1 9 4 6 5 3 6 2 9-1 9-4 2-2 3-4 1-4-1-6-5-10-3-3-5-3h-8l-2 2"/>
        <path d="M-72-346l-1 1-2 1M-108-273l-3 29 1 13 3 17 3 12 11 20 4 7 3 3 4 2 8 2 14 3h21l9-1 8-5 5-10 3-8v-15l-1-22v-7l-4-19 1-8M-533-291l1 2M-532-303v-10h6l5-4 2-3-1-4-1-3-4-5-3-2h-3l-7 1M-612-215v1M-614-248v-10l-1-8-3-10-1-14M-422-259v2M-424-271h-1l-3-12v-7l3-4 1-4v-5l-3-6-4-4-4-2-2-2v-2"/>
      </g>
      <g id="f1" style="--index:1;opacity:0" class="frame">
        <path d="M-363-141l3 11 3 31 2-2"/>
        <path d="M-378-116l-4 2h3l3-1 13-2 10-2 12-2M-150-200l-1 4 3 24 1 2 1 1"/>
        <path d="M-167-182l3-2 7-1 7-2 15 1 2-1M-656-75l-9-10-1-3-1-6 4-8M-550-69l-2-4v-7l7-11v-4l-5-7M-475-104v-4l4-6v-7l-6-3-3-4v-8h1M-417-51l-2-6 9-11 3-7v-4l-8-10-2-3M-599 39l-4-1-3-10-1-7 2-3 1-1 2-2 1-5-1-8M-499 37l-3-3-2-4v-8l5-7 3-7V3l-4-6M-9 404l3-1H5l8-2h24l6-3h3v1h5v-1M-3 412l31-3h27M-80-342l-5 1-6 7-2 6v5l6 8 8 4 10-1 7-6 3-6 2-6v-5l-6-8-9-1-3-2-7 1M-109-271l-2 20 1 26 3 22 3 15 4 8 3 5 1 3 7 7 6 5 10 1 8 1 14-1 2-1 7-5 3-4 15-35 3-14 3-17v-25M-533-294l2 8M-535-290l6-1M-531-308l-1-7v-4l4-7v-5l-5-4-1-5M-620-294v-6M-423-259v2l1 2M-428-286l-2-5v-14l-1-5-7-14-1-10M-612-217v3M-611-228v-3l2-5"/>
      </g>
      <g id="f2" style="--index:2;opacity:0" class="frame">
        <path d="M-631 337l9-2h13l3 1 2 2h17M-68-349l-7 2-5 3-5 12v7l3 5 3 3 5 2 9 2 7-3 7-8 2-5v-4l-1-5-4-6-3-3-4-2-8-1M-18-259l-1 3 2 27-1 14-1 15-5 12-2 3-3 2h-4l-11 5-13 2-16-2-21-8-4-3-4-8-8-34-1-12 2-24v-4M-533-298l3 15M-538-291l9 1 2 1M-528-294l-9 9M-533-326l-1-5 1-13-2-14M-610-220v4M-611-228v-5l4-2 2-3-2-3-1-1h-5M-423-260l1 4M-437-325l-5-24"/>
      </g>
      <g id="f3" style="--index:3;opacity:0" class="frame">
        <path d="M-647 330l33-3h35l15-1h2M-622 322l9-1h7l3-1M-616 336l22-1M-55-350l-9 2-9 3-8 5-3 4-1 5 1 6 3 4 11 4 11 2 11-1 4-2 5-5 5-7v-7l-4-7-4-5-6-2-8 1M-18-260v9l4 20v14l-1 13-5 14-6 8-6 4-8 1-10 4-8 2h-9l-1-1-17-3-6-4-4-8-7-21-3-6-4-16v-13l-3-14 4-14M-533-306l-1 4 2 4 1 12v9"/>
        <path d="M-539-293h-4l1 1 21 6"/>
        <path d="M-524-298l-2-1-7 12-7 6M-535-358l-1-10M-611-220v4M-611-228h-1l-2-8 7-2 2-3 2-3-1-5-2-3-4-2h-3l-10 2M-422-262v4M-423-270v-5l3-3 1-4-3-3h-3M-442-347l-2-9"/>
      </g>
      <g id="f4" style="--index:4;opacity:0" class="frame">
        <path d="M-443-192l2 5 16 16 4 6h1l1 3 6 5 8 10 3 5 7 8 6 9 2 1 4 7 3 2 3 5 1 1M-238 79l3 3h1l15 20 6 7 1 1 2 3 4 3 2 4 12 14 2 3 6 7 1 2v1l2 1 3 5 3 3 2 5 7 9 4 3 4 6 2 1 9 12 11 12 3 6 3 2 7 9 4 6M-106 227l-2 4v23l-1 11M-109 265l1-3"/>
        <path d="M-121 240l5 3 20 2 3 1v2l1-1"/>
        <path d="M-90 230l-4 1-5 6-18 13-6 4"/>
        <path d="M-117 229l1 5 10 10 5 6 4 9 1 1h2M-42-349l-3-1-6 1-4 2-4 3-2 6-3 5v4l3 6 4 3 4 2 12 1 6-2 6-9 2-9-3-6-3-4-10-4M-108-273l-1 3 3 22 1 20 4 18 4 10 7 9 8 6 4 1 11 6 8 3 16 2h18l13-1h7l6-2 2-1 2-3 1-8-14-34-1-6-4-11-1-6-4-9v-4M-521-278l13 15M-538-379v1M-611-215h-1v5M-612-227h-1l-1-8 1-6 7-2 5-3 4-3v-6l-4-9-1-2-3-1-11-2-6 1-3 3M-422-262v2l1 3M-423-271l-3-11 4-2 4-3v-8l-3-3-6-2h-3l-4 2h-1"/>
      </g>
      <g id="f5" style="--index:5;opacity:0" class="frame">
        <path d="M-652 91l-3-4 6-11 2-1 2-8 2-8v-6l-2-2-4-3-3-3h-2l-7-6-4-6-1-3v-7l3-7 7-11V0M-559 93l3-4 8-7 3-4 5-7 2-5 1-6-2-5-9-10-7-7-3-4-1-3v-7l7-14V4l-1-2-2-3M-461 38l-6 1-4-5-6-9-3-11v-4l2-5 5-7 10-9 1-3v-3l-3-3-12-14-5-7v-7l5-10-1-1M-416 91l8-11 4-11 1-8v-3l-3-6-2-3-5-4-5-5-1-4-1-15 2-15M-56-348l-3-1-7 3-3 1-5 5-5 7-1 6v4l3 3 6 4 19 2 12-1 9-3 4-4 1-5v-6l-2-5-7-6-8-3-15-1M-108-272l-2 14 1 4v7l3 16 3 9 6 12 6 11 6 9 7 7 13 7 11 3h18l6 2h5l5 2 3 2 8 2h7l3-1 6-6v-7l-2-8-9-17-4-14-2-5-1-7-5-14v-9l-2-9M-533-291v2M-534-325h-1M-535-325h7l3 3 1 3-1 4-4 3h-3v11M-612-214v3M-612-229l-1-1-1-12v-5l4-7 1-6v-3l-5-8-3-7v-4M-422-261l1 7M-423-271h-1l-1-6-3-7v-5M-428-289l7-2 4-3 1-6-1-6-3-4-5-4-8-2-5 3"/>
      </g>
    </g>
  </g>
</svg>