<svg
	xmlns="http://www.w3.org/2000/svg"
	xmlns:xlink="http://www.w3.org/1999/xlink"
	stroke-linecap="round"
	viewBox="0 0 1080 1080"
	fill="none"
>
	<defs>
		<path
			id="1"
			d="M438 581c36-36 71-75 107-112M63 260c-21 40-38 84-38 130M478 43c-22 33-82 122-82 158M897 327c11 43 17 87 28 128M711 712c-13 62-38 111-73 163M249 761c0 44 18 95-9 135M-84 903c18 36 67 53 91 88M790 31c-23 35-32 79-47 117M992 612c18 17 38 28 49 51M272 351c-3 7 55 72 66 84M996 903c18 36 67 53 91 88"
		/>
		<path
			id="2"
			d="M296-36c-23 53-28 116-54 168M170 455c27 28 46 75 67 108M498 712c24-47 78-91 115-128M855 775c-14 28-26 130-26 163M748 395c0 38-3 104 25 133M676 6c-22 43-39 87-54 133M1027 176c-5-2-14 37-16 42-11 28-19 58-19 88M932-36c20 41 61 68 93 100M522 320c-4-3-1-3 4-4 25-6 108-45 126-26M120 746c-25 25-16 103-16 137M296 1044c-23 53-28 116-54 168M676 1086c-22 43-39 87-54 133M932 1044c20 41 61 68 93 100M431 871c19 38 50 73 79 103"
		/>
		<path
			id="3"
			d="M333-168c42 43 52 122 110 161M361 57c-25 50-38 105-56 158M-103-78l38 33c29 29 56 61 86 90M18 197C1 251-21 303-21 360M200 367c42 42 63 110 107 154M175 691c0 68-14 139-14 210M-16 542c23 23 96 5 132 42M471 626c3 0 150-116 163-129M445 411c20 0 57-24 74-30 34-12 69-16 103-16M457 253l39-17c28-9 72-11 93-32M727 13c-19 57-49 118-61 177M797 225c7 8 84-63 109-63M112 185c42 21 72 74 116 96M305 633c28 28 37 104 77 144M333 912c42 43 52 122 110 161M692 642c38 0 116-49 149-16M977-78l38 33c29 29 56 61 86 90M1098 197c-17 54-39 106-39 163M900 649c31 45 54 98 94 137M1064 542c23 23 96 5 132 42M805 360c14 58 23 119 37 177M-103 1002l38 33c29 29 56 61 86 90M93 1058c26 0 86-24 105-5M515 839c24 48 53 95 70 147M762 797c-9 18-8 43-14 63-16 53-38 104-51 158M977 1002l38 33c29 29 56 61 86 90"
		/>
		<path
			id="4"
			d="M109-98c20 39 21 130 47 156M-154 75C-89 10-40-72 25-138M-61 109C-39 67-6 36 28 2M95 231c-6-7 69-76 84-91M163 326c-9 9 4-19 7-23 10-16 36-65 58-65M926 75c65-65 114-147 179-213M886-12l35-44c29-36 54-75 87-107M1019 109c22-42 55-73 89-107M191 584c40-41 66-109 100-156 16-23 30-48 47-70 1-2 15-14 9-14M-103 211c77 51 132 134 210 186M210 94c-11-11 10 4 16 7 22 12 52 16 77 19 62 6 143-3 200 26M613 1c41 0 125 128 158 161M748 502c61-30 180-77 247-77M694 390c23-34 163-57 210-72M538 185c0 46-10 221 16 247M620 215c-10 69 9 139 9 208M447 514c48 32 82 148 117 200M282 702c23-23 88-70 116-41M300 798l5-2 40-21c12-8 105-68 105-31M51 875c80 0 175 32 245 67M58 775c49 0 161-2 186 49M-140 740c-9 9 4-10 7-12l58-49c16-13 156-123 156-133M-72 793c30-60 104-100 151-146M109 982c20 39 21 130 47 156M-154 1155c65-65 114-147 179-213M-61 1189c22-42 55-73 89-107M396-1c-5-11 109-87 144-107 6-4 35-22 40-17M811 188c0 33 11 68 25 97M874 106c7 83 7 82 18 163M977 211c77 51 132 134 210 186M940 740c-9 9 4-10 7-12l58-49c16-13 156-123 156-133M1008 793c30-60 104-100 151-146M945 600c0-28 51-61 72-75 4-2 40-27 40-21M926 1155c65-65 114-147 179-213M886 1068l35-44c29-36 54-75 87-107M1019 1189c22-42 55-73 89-107M613 1081c41 0 125 128 158 161M347 997c-7 0 41-29 49-35 34-23 65-50 100-72 6-4 44-28 35-28M608 909c17-18 176-24 205-24 19 0 110-18 110-9M659 790c44 0 161-45 196-9M396 1079c-5-11 109-87 144-107 6-4 35-22 40-17"
		/>
		<path
			id="5"
			d="M592 72c3-6 3-4 9-2 21 7 137 139 158 165M580 156c41 21 80 73 112 105M-56 377c-4-3 0 0 2 0 48 24 75 82 121 105M-61 168c56 28 132 99 177 144M1024 377c-4-3 0 0 2 0 48 24 75 82 121 105M1019 168c56 28 132 99 177 144M256 607c-3 0 1-1 2-5 19-37 140-168 124-184M147 500c-6 4-24 14-12 2 39-38 73-88 107-130l28-42M454 236c-5-1 0 30 0 33 5 51 7 110 26 159 1 3 4 1 2-3M321 257c0-13 29 42 38 56 26 44 54 88 77 133M214 183c75 37 167 7 238 7M228 31c-1-2 74 8 86 10 48 5 162-6 182 53M380-176c16 34 49 62 67 96 19 35 32 94 61 123M286-122c16 30 64 137 82 156M498 29c-18-9 122-98 122-114M662 369c19 20 31 135 37 161 3 12 21 102 21 72M659 483c-5 0 57-38 70-44 61-26 125-46 187-70 8-3 100-51 67-18M666 316c25-13 97-27 110-40M231 675l39-31c22-17 61-60 91-60 7 0 5 3 2 9M349 537c0-10 7 19 10 28 6 19 13 37 21 56 10 24 79 146 79 165M256 661c14 27 79 191 79 212M65 956c3-3 3-3 7-2 53 18 100 28 156 28M806-57c20 54 46 104 72 156M23 160c0-14 65-85 65-66M35 76c17 35 43 64 56 102M545 467c-5-5 3 9 5 14 8 24 11 47 21 70 21 52 42 101 67 151M794 607c-20 0-11 156-11 186M14 616c13 27 54 78 81 91M610 800c0-4 3 8 5 12 6 15 10 31 14 47 11 39 9 98 40 128M725-32C749-7 877-52 937 8M37 497c28-55 63-101 98-153v-3M914 556c36 35 100 209 150 209M15 890c-28-17-143-45-147-49M380 904c16 34 49 62 67 96 19 35 32 94 61 123M286 958c16 30 64 137 82 156M324 923c46-47 116-90 177-115 4-1 16-4 16-7M498 1109c-18-9 122-98 122-114M643 944h65c56-3 115-12 168-12M643 739c-5 1-9-1-5-3 54-18 112-23 168-28l40-2M806 1023c20 54 46 104 72 156M1095 890c-28-17-143-45-147-49M725 1048c24 25 152-20 212 40"
		/>
		
		<g id="two">
			<use xlink:href="#2" />
			<use xlink:href="#1" />
		</g>
		<g id="three">
			<use xlink:href="#3" />
			<use xlink:href="#two" />
		</g>
		<g id="four">
			<use xlink:href="#three" />
			<use xlink:href="#4" />
		</g>
    <g id="all">
			<use xlink:href="#5" />
			<use xlink:href="#four" />
		</g>
	</defs>

	<path fill="#f2f2f2" d="M0 0h1080v1080H0z" />

	<g stroke="#d9d9d9" stroke-width="77">
		<use xlink:href="#all" />
		<g transform="rotate(90, 540, 540)">
			<use xlink:href="#all" />
		</g>
	</g>

	<g stroke="#bfbfbf" stroke-width="68">
		<use xlink:href="#all" />
		<g transform="rotate(90, 540, 540)">
			<use xlink:href="#four" />
		</g>
	</g>

	<g stroke="#a6a6a6" stroke-width="50">
		<use xlink:href="#all" />
		<g transform="rotate(90, 540, 540)">
			<use xlink:href="#three" />
		</g>
	</g>

	<g stroke="#8c8c8c" stroke-width="40">
		<use xlink:href="#all" />
		<g transform="rotate(90, 540, 540)">
			<use xlink:href="#two" />
		</g>
	</g>

	<g stroke="#737373" stroke-width="30">
		<use xlink:href="#all" />
	</g>

	<g stroke="#595959" stroke-width="28">
		<use xlink:href="#four" />
	</g>

	<g stroke="#404040" stroke-width="25">
		<use xlink:href="#three" />
	</g>

	<g stroke="#262626" stroke-width="22">
		<use xlink:href="#two" />
	</g>

	<g stroke="#0d0d0d" stroke-width="20">
		<use xlink:href="#1" />
	</g>
</svg>
